<?xml version="1.0" encoding="UTF-8"?><svg id="a" xmlns="http://www.w3.org/2000/svg" xmlns:xlink="http://www.w3.org/1999/xlink" viewBox="0 0 1382.4 777.6"><defs><style>.d{fill:url(#c);fill-opacity:.7725;fill-rule:evenodd;stroke:#2d2d2d;stroke-miterlimit:10;}.d,.e{stroke-width:.25px;}.f{opacity:.8;}.e{stroke:#231f20;}.e,.g{fill:none;}</style><pattern id="c" x="0" y="0" width="72" height="72" patternTransform="translate(359 1457)" patternUnits="userSpaceOnUse" viewBox="0 0 72 72"><g><rect width="72" height="72" style="fill:none;"/><g><line x1="71.75" y1="68.3994" x2="144.25" y2="68.3994" style="fill:none; stroke:#231f20; stroke-width:.25px;"/><line x1="71.75" y1="70.381" x2="144.25" y2="70.381" style="fill:none; stroke:#231f20; stroke-width:.25px;"/><line x1="71.75" y1="54" x2="144.25" y2="54" style="fill:none; stroke:#231f20; stroke-width:.25px;"/><line x1="71.75" y1="39.6006" x2="144.25" y2="39.6006" style="fill:none; stroke:#231f20; stroke-width:.25px;"/><line x1="71.75" y1="25.2002" x2="144.25" y2="25.2002" style="fill:none; stroke:#231f20; stroke-width:.25px;"/><line x1="71.75" y1="10.7998" x2="144.25" y2="10.7998" style="fill:none; stroke:#231f20; stroke-width:.25px;"/><line x1="71.75" y1="61.2002" x2="144.25" y2="61.2002" style="fill:none; stroke:#231f20; stroke-width:.25px;"/><line x1="71.75" y1="46.7998" x2="144.25" y2="46.7998" style="fill:none; stroke:#231f20; stroke-width:.25px;"/><line x1="71.75" y1="32.4004" x2="144.25" y2="32.4004" style="fill:none; stroke:#231f20; stroke-width:.25px;"/><line x1="71.75" y1="18" x2="144.25" y2="18" style="fill:none; stroke:#231f20; stroke-width:.25px;"/><line x1="71.75" y1="3.6006" x2="144.25" y2="3.6006" style="fill:none; stroke:#231f20; stroke-width:.25px;"/><line x1="71.75" y1="66.5045" x2="144.25" y2="66.5045" style="fill:none; stroke:#231f20; stroke-width:.25px;"/><line x1="71.75" y1="52.1051" x2="144.25" y2="52.1051" style="fill:none; stroke:#231f20; stroke-width:.25px;"/><line x1="71.75" y1="37.7057" x2="144.25" y2="37.7057" style="fill:none; stroke:#231f20; stroke-width:.25px;"/><line x1="71.75" y1="23.3053" x2="144.25" y2="23.3053" style="fill:none; stroke:#231f20; stroke-width:.25px;"/><line x1="71.75" y1="8.9049" x2="144.25" y2="8.9049" style="fill:none; stroke:#231f20; stroke-width:.25px;"/><line x1="71.75" y1="59.3053" x2="144.25" y2="59.3053" style="fill:none; stroke:#231f20; stroke-width:.25px;"/><line x1="71.75" y1="44.9049" x2="144.25" y2="44.9049" style="fill:none; stroke:#231f20; stroke-width:.25px;"/><line x1="71.75" y1="30.5055" x2="144.25" y2="30.5055" style="fill:none; stroke:#231f20; stroke-width:.25px;"/><line x1="71.75" y1="16.1051" x2="144.25" y2="16.1051" style="fill:none; stroke:#231f20; stroke-width:.25px;"/><line x1="71.75" y1="1.7057" x2="144.25" y2="1.7057" style="fill:none; stroke:#231f20; stroke-width:.25px;"/></g><g><line x1="-.25" y1="68.3994" x2="72.25" y2="68.3994" style="fill:none; stroke:#231f20; stroke-width:.25px;"/><line x1="-.25" y1="70.381" x2="72.25" y2="70.381" style="fill:none; stroke:#231f20; stroke-width:.25px;"/><line x1="-.25" y1="54" x2="72.25" y2="54" style="fill:none; stroke:#231f20; stroke-width:.25px;"/><line x1="-.25" y1="39.6006" x2="72.25" y2="39.6006" style="fill:none; stroke:#231f20; stroke-width:.25px;"/><line x1="-.25" y1="25.2002" x2="72.25" y2="25.2002" style="fill:none; stroke:#231f20; stroke-width:.25px;"/><line x1="-.25" y1="10.7998" x2="72.25" y2="10.7998" style="fill:none; stroke:#231f20; stroke-width:.25px;"/><line x1="-.25" y1="61.2002" x2="72.25" y2="61.2002" style="fill:none; stroke:#231f20; stroke-width:.25px;"/><line x1="-.25" y1="46.7998" x2="72.25" y2="46.7998" style="fill:none; stroke:#231f20; stroke-width:.25px;"/><line x1="-.25" y1="32.4004" x2="72.25" y2="32.4004" style="fill:none; stroke:#231f20; stroke-width:.25px;"/><line x1="-.25" y1="18" x2="72.25" y2="18" style="fill:none; stroke:#231f20; stroke-width:.25px;"/><line x1="-.25" y1="3.6006" x2="72.25" y2="3.6006" style="fill:none; stroke:#231f20; stroke-width:.25px;"/><line x1="3.1594" y1="64.99" x2="75.6594" y2="64.99" style="fill:none; stroke:#231f20; stroke-width:.25px;"/><line x1="3.1594" y1="50.5906" x2="75.6594" y2="50.5906" style="fill:none; stroke:#231f20; stroke-width:.25px;"/><line x1="3.1594" y1="36.1912" x2="75.6594" y2="36.1912" style="fill:none; stroke:#231f20; stroke-width:.25px;"/><line x1="3.1594" y1="21.7908" x2="75.6594" y2="21.7908" style="fill:none; stroke:#231f20; stroke-width:.25px;"/><line x1="3.1594" y1="7.3904" x2="75.6594" y2="7.3904" style="fill:none; stroke:#231f20; stroke-width:.25px;"/><line x1="3.1594" y1="57.7908" x2="75.6594" y2="57.7908" style="fill:none; stroke:#231f20; stroke-width:.25px;"/><line x1="3.1594" y1="43.3904" x2="75.6594" y2="43.3904" style="fill:none; stroke:#231f20; stroke-width:.25px;"/><line x1="3.1594" y1="28.991" x2="75.6594" y2="28.991" style="fill:none; stroke:#231f20; stroke-width:.25px;"/><line x1="3.1594" y1="14.5906" x2="75.6594" y2="14.5906" style="fill:none; stroke:#231f20; stroke-width:.25px;"/><line x1="3.1594" y1=".1912" x2="75.6594" y2=".1912" style="fill:none; stroke:#231f20; stroke-width:.25px;"/><line x1="-.25" y1="66.5045" x2="72.25" y2="66.5045" style="fill:none; stroke:#231f20; stroke-width:.25px;"/><line x1="-.25" y1="52.1051" x2="72.25" y2="52.1051" style="fill:none; stroke:#231f20; stroke-width:.25px;"/><line x1="-.25" y1="37.7057" x2="72.25" y2="37.7057" style="fill:none; stroke:#231f20; stroke-width:.25px;"/><line x1="-.25" y1="23.3053" x2="72.25" y2="23.3053" style="fill:none; stroke:#231f20; stroke-width:.25px;"/><line x1="-.25" y1="8.9049" x2="72.25" y2="8.9049" style="fill:none; stroke:#231f20; stroke-width:.25px;"/><line x1="-.25" y1="59.3053" x2="72.25" y2="59.3053" style="fill:none; stroke:#231f20; stroke-width:.25px;"/><line x1="-.25" y1="44.9049" x2="72.25" y2="44.9049" style="fill:none; stroke:#231f20; stroke-width:.25px;"/><line x1="-.25" y1="30.5055" x2="72.25" y2="30.5055" style="fill:none; stroke:#231f20; stroke-width:.25px;"/><line x1="-.25" y1="16.1051" x2="72.25" y2="16.1051" style="fill:none; stroke:#231f20; stroke-width:.25px;"/><line x1="-.25" y1="1.7057" x2="72.25" y2="1.7057" style="fill:none; stroke:#231f20; stroke-width:.25px;"/><line x1="3.1594" y1="63.0951" x2="75.6594" y2="63.0951" style="fill:none; stroke:#231f20; stroke-width:.25px;"/><line x1="3.1594" y1="48.6957" x2="75.6594" y2="48.6957" style="fill:none; stroke:#231f20; stroke-width:.25px;"/><line x1="3.1594" y1="34.2963" x2="75.6594" y2="34.2963" style="fill:none; stroke:#231f20; stroke-width:.25px;"/><line x1="3.1594" y1="19.8959" x2="75.6594" y2="19.8959" style="fill:none; stroke:#231f20; stroke-width:.25px;"/><line x1="3.1594" y1="5.4955" x2="75.6594" y2="5.4955" style="fill:none; stroke:#231f20; stroke-width:.25px;"/><line x1="3.1594" y1="55.8959" x2="75.6594" y2="55.8959" style="fill:none; stroke:#231f20; stroke-width:.25px;"/><line x1="3.1594" y1="41.4955" x2="75.6594" y2="41.4955" style="fill:none; stroke:#231f20; stroke-width:.25px;"/><line x1="3.1594" y1="27.0961" x2="75.6594" y2="27.0961" style="fill:none; stroke:#231f20; stroke-width:.25px;"/><line x1="3.1594" y1="12.6957" x2="75.6594" y2="12.6957" style="fill:none; stroke:#231f20; stroke-width:.25px;"/></g><g><line x1="-72.25" y1="68.3994" x2=".25" y2="68.3994" style="fill:none; stroke:#231f20; stroke-width:.25px;"/><line x1="-72.25" y1="70.381" x2=".25" y2="70.381" style="fill:none; stroke:#231f20; stroke-width:.25px;"/><line x1="-72.25" y1="54" x2=".25" y2="54" style="fill:none; stroke:#231f20; stroke-width:.25px;"/><line x1="-72.25" y1="39.6006" x2=".25" y2="39.6006" style="fill:none; stroke:#231f20; stroke-width:.25px;"/><line x1="-72.25" y1="25.2002" x2=".25" y2="25.2002" style="fill:none; stroke:#231f20; stroke-width:.25px;"/><line x1="-72.25" y1="10.7998" x2=".25" y2="10.7998" style="fill:none; stroke:#231f20; stroke-width:.25px;"/><line x1="-72.25" y1="61.2002" x2=".25" y2="61.2002" style="fill:none; stroke:#231f20; stroke-width:.25px;"/><line x1="-72.25" y1="46.7998" x2=".25" y2="46.7998" style="fill:none; stroke:#231f20; stroke-width:.25px;"/><line x1="-72.25" y1="32.4004" x2=".25" y2="32.4004" style="fill:none; stroke:#231f20; stroke-width:.25px;"/><line x1="-72.25" y1="18" x2=".25" y2="18" style="fill:none; stroke:#231f20; stroke-width:.25px;"/><line x1="-72.25" y1="3.6006" x2=".25" y2="3.6006" style="fill:none; stroke:#231f20; stroke-width:.25px;"/><line x1="-68.8406" y1="64.99" x2="3.6594" y2="64.99" style="fill:none; stroke:#231f20; stroke-width:.25px;"/><line x1="-68.8406" y1="50.5906" x2="3.6594" y2="50.5906" style="fill:none; stroke:#231f20; stroke-width:.25px;"/><line x1="-68.8406" y1="36.1912" x2="3.6594" y2="36.1912" style="fill:none; stroke:#231f20; stroke-width:.25px;"/><line x1="-68.8406" y1="21.7908" x2="3.6594" y2="21.7908" style="fill:none; stroke:#231f20; stroke-width:.25px;"/><line x1="-68.8406" y1="7.3904" x2="3.6594" y2="7.3904" style="fill:none; stroke:#231f20; stroke-width:.25px;"/><line x1="-68.8406" y1="57.7908" x2="3.6594" y2="57.7908" style="fill:none; stroke:#231f20; stroke-width:.25px;"/><line x1="-68.8406" y1="43.3904" x2="3.6594" y2="43.3904" style="fill:none; stroke:#231f20; stroke-width:.25px;"/><line x1="-68.8406" y1="28.991" x2="3.6594" y2="28.991" style="fill:none; stroke:#231f20; stroke-width:.25px;"/><line x1="-68.8406" y1="14.5906" x2="3.6594" y2="14.5906" style="fill:none; stroke:#231f20; stroke-width:.25px;"/><line x1="-68.8406" y1=".1912" x2="3.6594" y2=".1912" style="fill:none; stroke:#231f20; stroke-width:.25px;"/><line x1="-72.25" y1="66.5045" x2=".25" y2="66.5045" style="fill:none; stroke:#231f20; stroke-width:.25px;"/><line x1="-72.25" y1="52.1051" x2=".25" y2="52.1051" style="fill:none; stroke:#231f20; stroke-width:.25px;"/><line x1="-72.25" y1="37.7057" x2=".25" y2="37.7057" style="fill:none; stroke:#231f20; stroke-width:.25px;"/><line x1="-72.25" y1="23.3053" x2=".25" y2="23.3053" style="fill:none; stroke:#231f20; stroke-width:.25px;"/><line x1="-72.25" y1="8.9049" x2=".25" y2="8.9049" style="fill:none; stroke:#231f20; stroke-width:.25px;"/><line x1="-72.25" y1="59.3053" x2=".25" y2="59.3053" style="fill:none; stroke:#231f20; stroke-width:.25px;"/><line x1="-72.25" y1="44.9049" x2=".25" y2="44.9049" style="fill:none; stroke:#231f20; stroke-width:.25px;"/><line x1="-72.25" y1="30.5055" x2=".25" y2="30.5055" style="fill:none; stroke:#231f20; stroke-width:.25px;"/><line x1="-72.25" y1="16.1051" x2=".25" y2="16.1051" style="fill:none; stroke:#231f20; stroke-width:.25px;"/><line x1="-72.25" y1="1.7057" x2=".25" y2="1.7057" style="fill:none; stroke:#231f20; stroke-width:.25px;"/><line x1="-68.8406" y1="63.0951" x2="3.6594" y2="63.0951" style="fill:none; stroke:#231f20; stroke-width:.25px;"/><line x1="-68.8406" y1="48.6957" x2="3.6594" y2="48.6957" style="fill:none; stroke:#231f20; stroke-width:.25px;"/><line x1="-68.8406" y1="34.2963" x2="3.6594" y2="34.2963" style="fill:none; stroke:#231f20; stroke-width:.25px;"/><line x1="-68.8406" y1="19.8959" x2="3.6594" y2="19.8959" style="fill:none; stroke:#231f20; stroke-width:.25px;"/><line x1="-68.8406" y1="5.4955" x2="3.6594" y2="5.4955" style="fill:none; stroke:#231f20; stroke-width:.25px;"/><line x1="-68.8406" y1="55.8959" x2="3.6594" y2="55.8959" style="fill:none; stroke:#231f20; stroke-width:.25px;"/><line x1="-68.8406" y1="41.4955" x2="3.6594" y2="41.4955" style="fill:none; stroke:#231f20; stroke-width:.25px;"/><line x1="-68.8406" y1="27.0961" x2="3.6594" y2="27.0961" style="fill:none; stroke:#231f20; stroke-width:.25px;"/><line x1="-68.8406" y1="12.6957" x2="3.6594" y2="12.6957" style="fill:none; stroke:#231f20; stroke-width:.25px;"/></g></g></pattern></defs><g id="b" transform="matrix(1,0,0,1,0,0)" style="opacity:.8;"><path d="M349.1376,566.9016l-48.0744-36.6768-16.5888-18.8448-5.3208-8.7648-1.2264-3.4992,.7464-.1536-3.4848-8.0208-3.0168-10.596-2.7072-15.0096,22.0056-5.7552,28.02,2.2008,1.4352-16.08,26.4048,3.2712,2.7096,13.2048-2.0304,15.1224,3.384,15.12,3.8376,12.6384,23.2464,4.6272,9.8184,4.74,6.5448,8.0136,11.2848,11.8488,5.4792,21.384,2.76,5.4744,7.6344-4.344,1.4208,2.6784,9.8472-4.8792,3.6792,6.5544-10.2456,3.7729-.6864-1.968-1.4952-3.1872-8.6616,1.6776,1.5648,4.0344,1.4664,3.6696,7.4904-2.3424,.5784,1.6776,.8112-.2784,2.8704-.9912-.2256-.564,7.9008-3.132,.4008,.672-3.54,1.4664,.1848,.5088-.7056,.3096,.4512,1.2696,.7464-.324,.5976,1.6248,.1224,.336,4.0488-1.8216,6.3576,11.0712,.3096,.7056-14.868,4.7112,5.4744,15.4944,.5064,1.4328-.2568,2.5176-3.3504,4.2312-1.584,3.2952-25.1928,10.44-7.7592,9.9864-15.2352-2.2584-12.192-6.4271,1.5648-2.6953,.0744-.648-8.0712-4.8096-1.9392,3.1296-4.3248-2.8752,6.8832-13.9368,6.3768,3.384,6.5592-10.8336,.1032-.1728,2.4216-9.9264-14.4528-1.8264-3.0888-.4344-2.0928,2.316-14.3832-6.0408,3.8352-7.5624-3.1584-2.9328" vector-effect="non-scaling-stroke" style="fill:url(#c); fill-opacity:.7725; fill-rule:evenodd; stroke:#2d2d2d; stroke-miterlimit:10; stroke-width:.25px;"/><path d="M121.7061,353.0784l-3.3648-.7248-.2705-2.5416-.4423-3.7704-.1594-3.0072,5.8819,.048,.0864,1.8312,.5249-.0096,.9607-.0168,.0264,1.2,.0103,.4944,1.2775,.0144,.0842-.468,.6785-3.7584,.2566-1.4232,1.2154,.2088,.0269-.42,.1426-2.2488,.0274-.4272-2.5944,.2832-.0706-3.1464,1.9565-.1944-.0211-.4584-.0751-2.0112-1.9243,.2256-.1068-1.8504,5.8157-.6408,5.7367-1.6368,9.3729,1.9032,3.2249,4.8552,.6626,.6408,1.229,1.5816,1.2559,1.1856,9.5527,9.1224,15.0734,8.8248,16.295-3.6792,12.061,9.0768,6.4735-.9288,5.4053,18.7608,.3041,6.2088-4.0217,5.988-41.0818,13.308-42.5599-5.4432-4.4556-13.3968-2.1826-22.6272-5.7204-7.752,.5827-.4776,.6631,.7128,.4913-1.1304,1.523-1.3152,.0857-.5016,2.6897,.6744,3.6713,1.596,2.2231,.8472,.7001,.3576,.6754,1.7688,1.3135-.6024-.061-1.2168,1.3774-.2544,1.6205-.2256,1.361-.2112,.8431-.0576,2.965,.3504,6.3842,2.3976-.2429,1.1664,.4702,.0648,1.0286-.2832-.3888-1.0224-.2186-1.3032-.5753-.0408-.9562,.6816-4.7722-1.896-.8911-.228-1.9769-.2352h-1.41l-2.0573,.252-2.5282,.2592-1.8228-.1296-1.3694-.4536-1.2881-.4872-3.7351-1.5384-1.1342-.3168-1.8086-.3816" vector-effect="non-scaling-stroke" style="fill:url(#c); fill-opacity:.7725; fill-rule:evenodd; stroke:#2d2d2d; stroke-miterlimit:10; stroke-width:.25px;"/><path d="M248.0832,333.8832l22.704,3.6456,23.532-19.2216,15.7416,7.1256,7.1256,16.0728,3.1488,15.9096-13.7544,17.8968,.3312,19.8864-12.7584,14.9136-12.0096-3.06-1.8336-10.3368-5.484-.4056-2.292,3.5904-.7992-.5928-1.5408-1.4016-.5064-1.4928-.0792-1.2888-.0336-.5616-.84-.2184-1.7592-4.9464v-16.0752l-22.704-12.924-10.7714-23.3664,8.4506-5.136,6.132,1.9872" vector-effect="non-scaling-stroke" style="fill:url(#c); fill-opacity:.7725; fill-rule:evenodd; stroke:#2d2d2d; stroke-miterlimit:10; stroke-width:.25px;"/><path d="M692.6712,516.8352l.7344-2.172-3.9504-1.6368,2.6232-7.5336,2.6232,.7344,.6768-1.92,2.076,.9216,1.0296-2.8968,5.868,2.3712,.1968,2.1168-.084,1.8888-2.4552,3.1032-2.4264,2.004-1.1856,.3672-2.2008,1.9176-.8448,1.6632-2.6808-.9288" vector-effect="non-scaling-stroke" style="fill:url(#c); fill-opacity:.7725; fill-rule:evenodd; stroke:#2d2d2d; stroke-miterlimit:10; stroke-width:.25px;"/><path d="M816.9744,624.8304l.876-.8472-.3384-.3648,.9312-.876,5.5008,5.8392-1.1976,.8208-1.1808,.8112-4.5912-5.3832" vector-effect="non-scaling-stroke" style="fill:url(#c); fill-opacity:.7725; fill-rule:evenodd; stroke:#2d2d2d; stroke-miterlimit:10; stroke-width:.25px;"/><path d="M787.5,241.0728l-1.3296,17.2224,.432,.3624,4.128,.9336,2.5752-1.2264,4.2696-2.9496,2.3136-1.5984,3.384-2.4648,1.26-8.9136-3.7992-1.3656-6.4271-1.087-3.4368,.103-3.3696,.984" vector-effect="non-scaling-stroke" style="fill:url(#c); fill-opacity:.7725; fill-rule:evenodd; stroke:#2d2d2d; stroke-miterlimit:10; stroke-width:.25px;"/><path d="M431.9016,539.6928l.312,.876-2.2008,1.128,.4512,1.128-6.348,3.132,.1128,1.6632,2.652-1.0992,.2832,.564,1.9176-.96,.0552-.9024,1.5528-.732,.3672,.6768,3.6384-1.8576,2.0472-1.3032,.3096,.564,2.8632-1.536,.48-.312,1.2984,2.7936,1.2408-.4656,1.7064-.7896v-2.172l.1128-1.0032-.0984-4.7088-.1416-1.68-3.2592,1.4256-.012,.7176-9.3408,4.8528" vector-effect="non-scaling-stroke" style="fill:url(#c); fill-opacity:.7725; fill-rule:evenodd; stroke:#2d2d2d; stroke-miterlimit:10; stroke-width:.25px;"/><path d="M733.7736,363.5976l-2.7552-1.668,1.1424-1.8336,1.0728-1.9752,.5064-1.2552-.012-.5496-.2832-.4224,.3672-.552,10.2408,3.4296-3.0768,6.8832-1.0848-.7056-5.6568-2.412-.4608,1.0608" vector-effect="non-scaling-stroke" style="fill:url(#c); fill-opacity:.7725; fill-rule:evenodd; stroke:#2d2d2d; stroke-miterlimit:10; stroke-width:.25px;"/><path d="M765.9288,307.2456l.3936,.1392,.3072-.8016,6.4992,2.4168,1.4208,.5016,1.6464,.8568-2.664,3.6-3.2304,3.5136-.636,.8448-4.0488-2.7216,1.0032-2.7648-3.2736-1.3536,1.8696-4.536,.7129,.3048" vector-effect="non-scaling-stroke" style="fill:url(#c); fill-opacity:.7725; fill-rule:evenodd; stroke:#2d2d2d; stroke-miterlimit:10; stroke-width:.25px;"/><path d="M257.7336,511.1664l-.3888,4.44,.372-.0168-.1368,2.052-1.3704,.1368-.6312-1.9296-.4872-2.1384-.2592-1.2648,1.9608-.0648,.0168-1.1496,.924-.0647" vector-effect="non-scaling-stroke" style="fill:url(#c); fill-opacity:.7725; fill-rule:evenodd; stroke:#2d2d2d; stroke-miterlimit:10; stroke-width:.25px;"/><path d="M257.532,507.9864l-.3456,2.6016,1.9176-.0744,.8088-3.8064-1.128-.2208,.2928-1.62,1.4496,.2952,1.1304-5.3808-1.4472-.1656,.252-1.2984-.9312-.288-.1392,4.5192-1.3368-.2352-.0336,1.3992-.4896,4.2744" vector-effect="non-scaling-stroke" style="fill:url(#c); fill-opacity:.7725; fill-rule:evenodd; stroke:#2d2d2d; stroke-miterlimit:10; stroke-width:.25px;"/><path d="M440.0976,519.9864l.396,.8616,.2088,.3504,.8904,.9168,.7176,1.0296,.8784,1.8792,.3648,.3071,.8448,.3529,.4392,.7224,.1968,.7056,2.1576,.0672,.0024-.492,3.6384,.012v-1.1568l-4.1352,.0144-1.8048,.1128,.6216-7.6848,.3096-.3096,.0432-.5832-.1272-.4656-.8616,.0144-1.4928,.3-3.7536,1.0152,.2256,.5904-1.1016,.2952-.8712,.3984,.4776,.4896,1.3536-.0264,.2688-.0408,.1128,.324" vector-effect="non-scaling-stroke" style="fill:url(#c); fill-opacity:.7725; fill-rule:evenodd; stroke:#2d2d2d; stroke-miterlimit:10; stroke-width:.25px;"/><path d="M436.5576,517.9008l.48,.5496,2.6928-.8232,4.5-1.1976,1.368-.1272-.24-.4776-.3384-.4248-.5352-.4896-4.3008,1.1568-.072-.2856-.8184,.24,.324,.9864-3.06,.8928" vector-effect="non-scaling-stroke" style="fill:url(#c); fill-opacity:.7725; fill-rule:evenodd; stroke:#2d2d2d; stroke-miterlimit:10; stroke-width:.25px;"/><path d="M433.4544,527.6328l1.212,1.9008,.6768-.324,7.5192-4.2144-.5064-1.1856-.552-.948-3.06,1.8912-5.2896,2.88" vector-effect="non-scaling-stroke" style="fill:url(#c); fill-opacity:.7725; fill-rule:evenodd; stroke:#2d2d2d; stroke-miterlimit:10; stroke-width:.25px;"/><path d="M439.9848,520.608l-1.8744,.72-.0984-.1848-4.5864,2.0184,.1824,.4488-.6912,.324,.4224,.8328,5.1504-2.7912,1.8744-.8064,.4104,.636,.6336,.564,.2256,.2952-3.0312,1.7928-5.2776,2.8752-.9432-2.0424-.816-2.256,6.7824-2.9784,1.3248-.072,.312,.624" vector-effect="non-scaling-stroke" style="fill:url(#c); fill-opacity:.7725; fill-rule:evenodd; stroke:#2d2d2d; stroke-miterlimit:10; stroke-width:.25px;"/><path d="M435.3312,515.9952l.4632,.5184,.2976,.54,2.9904-1.2576-.3384-.9432,2.3424-.7752,.3528,.8184,1.0128-.2568-.2952-.972-.1968,.0432-.7608-1.5096-1.9344,.7896,.168,.3936-2.4816,1.3968-.2832-.3672-.492,.2953,.3528,.6071-1.1976,.6792" vector-effect="non-scaling-stroke" style="fill:url(#c); fill-opacity:.7725; fill-rule:evenodd; stroke:#2d2d2d; stroke-miterlimit:10; stroke-width:.25px;"/><path d="M430.7184,521.8632l.3672,1.0008,6.9648-3.0192-.6624-.8064-6.6696,2.8248" vector-effect="non-scaling-stroke" style="fill:url(#c); fill-opacity:.7725; fill-rule:evenodd; stroke:#2d2d2d; stroke-miterlimit:10; stroke-width:.25px;"/><path d="M441.792,526.0104l.5616,.9864-6.924,3.7824-.48-.9456,6.8424-3.8232" vector-effect="non-scaling-stroke" style="fill:url(#c); fill-opacity:.7725; fill-rule:evenodd; stroke:#2d2d2d; stroke-miterlimit:10; stroke-width:.25px;"/><path d="M431.2536,518.5488l.2808,.6312,2.1048-.7992,.3936,1.1136,1.3944-.5256-.3504-1.0536,.9432-.3144-.4056-.8016-4.3608,1.7496" vector-effect="non-scaling-stroke" style="fill:url(#c); fill-opacity:.7725; fill-rule:evenodd; stroke:#2d2d2d; stroke-miterlimit:10; stroke-width:.25px;"/><path d="M153.5647,331.4952l-1.6519-.708-1.9164,3.9528,1.2473,1.2384,2.321-4.4832" vector-effect="non-scaling-stroke" style="fill:url(#c); fill-opacity:.7725; fill-rule:evenodd; stroke:#2d2d2d; stroke-miterlimit:10; stroke-width:.25px;"/><path d="M273.6504,512.592l.984,.108,.9192,.288,1.56,.7824,1.9368-.684-.984-2.4912-.108-1.5192,.1296-1.4424-1.3896-3.5496-5.6016-.9312-.3648,.204-.3216,2.8824,.2784,.4152,3.8376,.7536-.5232,3.0696-6.468-.5352-.288,2.148,2.1792,.3192,4.224,.1824" vector-effect="non-scaling-stroke" style="fill:url(#c); fill-opacity:.7725; fill-rule:evenodd; stroke:#2d2d2d; stroke-miterlimit:10; stroke-width:.25px;"/><path d="M704.3568,420.768l-1.128,3.7896,3.6216,1.5912-2.3736,7.14-25.8024-8.0256,2.0688-8.2104,5.0208,1.1568,1.4952-6.6024-11.5656-3.2448-.3864,1.836-9.3672-2.7984-2.52-.8712,.96-6.6288-2.4264-.7608-3.8928-.8184-.8184,3.0192-3.1512,3.2328-2.604-.78-4.2048,8.04-3.6384-.564-.8184,1.4688-4.9392-1.8912-.5904,1.608-5.9808-1.9464-4.0104-2.1264-1.2072,4.284,1.5624,3.6456,1.8048,.1032,.6504,3.636-5.9112-1.0224-.7608,2.0304-2.4264,.1128-.3384,1.5528-7.2504-3.612-4.74-2.6232-1.8576,6.0648,.2976,.4344,.2784,.4656,.7128,.8424,.4752,1.0152-.4656,.1968-1.9848,5.5008,3.9888,1.4976-2.16,5.6448-2.616-.9336-1.104,3.072-2.3352-.8064-1.1016,3.4416-4.716-1.0776-2.1336-.564-.4056,1.5744-1.2288-.2832-.6504,2.6232,3.4824,.7416-2.1072,6.0312,4.6008,1.6752-.4512,1.9728-.5376,2.3424-.9024,2.8488-.5929,2.0592,.7776,2.3688,1.0177,1.9128,.3528,.4464,1.0392,4.4568,.1752,.408,.2184,.384,.9576,.5544,.4344,2.2608,7.0056,1.6584-.3072,1.4592,1.4352,.3456,.4032-1.4016,2.712,1.092-.6408,2.1576-1.0968-.3432-1.1088,3.8664-.7704-.1536-.492,1.4784,2.8128,.804-1.2288,4.3824,7.7976,2.3064,4.9392,1.5648,4.0104,1.1304,2.3664,.0192-.1824,1.5432-2.4384-.708-1.8936,.1008-.5568,.1224-.624,.2112-.3577,.1848,1.2288,.552,1.8264,1.116,3.4008,2.1552,2.6112-2.9736,1.3824-.5447,.6072,.2232,1.7976,.4368,1.8456,.4488,1.524,.3696,1.212,.2904,8.076,2.2248,9.3144,2.6016,3.864,1.0944,3.6984,1.1088,.3216,.0192,.3264-.0216,16.9488-17.2152,14.376-16.4256,.3984-.4872,3.8112-4.9056,7.9344-10.2504,4.2144-16.7376,13.8792,3.8592,2.568-6.828,2.088-6.348,9.4224,3.5256,1.1568-3.4968-8.3112-3.3384-9.1632-3.336-6.0264-2.1576,1.5528-4.7376-1.992,.0048-4.8864,.9144-8.5824,2.1456" vector-effect="non-scaling-stroke" style="fill:url(#c); fill-opacity:.7725; fill-rule:evenodd; stroke:#2d2d2d; stroke-miterlimit:10; stroke-width:.25px;"/><path d="M150.6252,431.352l-2.6942,1.3536-2.3698,1.4112-1.9186,1.692-2.9904,2.7648-.5222,.3384,1.4815,3.5544,.7195-.396,.7473-1.5216,1.0154-1.2432,2.0174-2.0856,1.9891-1.2984,2.3698-1.524,1.0154-.168,.6775-.4536-1.5379-2.424" vector-effect="non-scaling-stroke" style="fill:url(#c); fill-opacity:.7725; fill-rule:evenodd; stroke:#2d2d2d; stroke-miterlimit:10; stroke-width:.25px;"/><path d="M163.6596,409.0056l.6348,1.0176-2.2572,.6768,.2825,2.0304-3.5554,.7344-1.523-5.304,.8885-.1128,.6211,2.088,4.9087-1.1304" vector-effect="non-scaling-stroke" style="fill:url(#c); fill-opacity:.7725; fill-rule:evenodd; stroke:#2d2d2d; stroke-miterlimit:10; stroke-width:.25px;"/><path d="M278.904,398.9064l-.8448,1.524-1.4688-1.128,.8352-1.1856,1.4784,.7896" vector-effect="non-scaling-stroke" style="fill:url(#c); fill-opacity:.7725; fill-rule:evenodd; stroke:#2d2d2d; stroke-miterlimit:10; stroke-width:.25px;"/><path d="M436.6848,183.9218l-1.0224-.3722,.2592-1.6757,.4848,.875,.2784,1.1729" vector-effect="non-scaling-stroke" style="fill:url(#c); fill-opacity:.7725; fill-rule:evenodd; stroke:#2d2d2d; stroke-miterlimit:10; stroke-width:.25px;"/><path d="M436.5936,184.8153l-.0576,5.9561-2.3448-.54,1.284-5.7142,1.1184,.2981" vector-effect="non-scaling-stroke" style="fill:url(#c); fill-opacity:.7725; fill-rule:evenodd; stroke:#2d2d2d; stroke-miterlimit:10; stroke-width:.25px;"/><path d="M436.9656,188.147l.0192,1.6006,3.4248,1.0426,.42-1.2924-3.864-1.3507" vector-effect="non-scaling-stroke" style="fill:url(#c); fill-opacity:.7725; fill-rule:evenodd; stroke:#2d2d2d; stroke-miterlimit:10; stroke-width:.25px;"/><path d="M477.3672,196.1287l-.6216,2.4127,1.7784,1.481-.48-1.693,.4656-1.975-1.1424-.2258" vector-effect="non-scaling-stroke" style="fill:url(#c); fill-opacity:.7725; fill-rule:evenodd; stroke:#2d2d2d; stroke-miterlimit:10; stroke-width:.25px;"/><path d="M469.0944,200.1948l-.4368,2.448,1.3632,.3355-.4176,2.3945,1.56,.3315,.4176-2.4072,1.4856,.3689-.4176,2.382,.9096,.1476,.2952-1.6334,1.3368,.2453-.3552,1.6462,1.1784,.7243,1.8552,.9089,.1968-1.2403,.7968,.1351,.0744-.9336-1.2648-.1718,.2688-1.4122,.9456,.0982,.0264-2.0998-.6768-.1109v-.6382l-.7368-.3564-.7488-.1102-.4296,1.7436,.6624,.0861-.2208,1.0807-1.6704-.1966,.6384-2.7881-4.3584-.6014-.2088,2.051-1.2168-.1478,.2088-1.3505-.528-.0617,.1104-.761-.6432-.1063" vector-effect="non-scaling-stroke" style="fill:url(#c); fill-opacity:.7725; fill-rule:evenodd; stroke:#2d2d2d; stroke-miterlimit:10; stroke-width:.25px;"/><path d="M466.4928,185.987l-.228,3.8369,1.356,.5078,1.8816,.5568,.4872-1.4597,1.2072,.3315-.2832,.9871,1.2144,.3389,.2592-.6984,2.2224,.6703-.5928,2.087,1.0152,.3108,1.044-3.4138,1.2768,.4018,.2544-.959-11.1144-3.498" vector-effect="non-scaling-stroke" style="fill:url(#c); fill-opacity:.7725; fill-rule:evenodd; stroke:#2d2d2d; stroke-miterlimit:10; stroke-width:.25px;"/><path d="M603.3216,423.5976l-1.44,4.3608,1.6752,.5808,1.6416-4.3296-1.8768-.612" vector-effect="non-scaling-stroke" style="fill:url(#c); fill-opacity:.7725; fill-rule:evenodd; stroke:#2d2d2d; stroke-miterlimit:10; stroke-width:.25px;"/><path d="M609.7704,414.0288l-.6864,2.0544-1.3872-.4512,.7032-2.0544,1.3704,.4512" vector-effect="non-scaling-stroke" style="fill:url(#c); fill-opacity:.7725; fill-rule:evenodd; stroke:#2d2d2d; stroke-miterlimit:10; stroke-width:.25px;"/><path d="M594.6048,384.1752l11.868,4.9752,1.0176-1.872-12.1536-5.1-.732,1.9968" vector-effect="non-scaling-stroke" style="fill:url(#c); fill-opacity:.7725; fill-rule:evenodd; stroke:#2d2d2d; stroke-miterlimit:10; stroke-width:.25px;"/><path d="M542.7624,369.5232l-.5808,6.084,2.0136,.6552,.12-.3408,3.588,.9936-.6288,2.0856,4.3632,1.3824,.3264-1.9056-1.212-.3336,.2304-1.1064,1.092-4.8-9.312-2.7144" vector-effect="non-scaling-stroke" style="fill:url(#c); fill-opacity:.7725; fill-rule:evenodd; stroke:#2d2d2d; stroke-miterlimit:10; stroke-width:.25px;"/><path d="M541.0896,385.932l-5.52-1.5864-.336,1.1016-1.1208,2.0904-.6912,1.1928-.5832,1.4712,8.1408,2.316,.1104-6.5856" vector-effect="non-scaling-stroke" style="fill:url(#c); fill-opacity:.7725; fill-rule:evenodd; stroke:#2d2d2d; stroke-miterlimit:10; stroke-width:.25px;"/><path d="M541.6896,391.56l-.0624,1.0656,12.8136,3.7416,.312-.9624-13.0632-3.8448" vector-effect="non-scaling-stroke" style="fill:url(#c); fill-opacity:.7725; fill-rule:evenodd; stroke:#2d2d2d; stroke-miterlimit:10; stroke-width:.25px;"/><path d="M532.2552,391.6152l-.3696,.876-.744,1.1568,9.9648,3.8016,5.4288,1.848,5.2992,1.5408,.1296-2.4912-10.4448-3.2568-.588-.1848-8.676-3.2904" vector-effect="non-scaling-stroke" style="fill:url(#c); fill-opacity:.7725; fill-rule:evenodd; stroke:#2d2d2d; stroke-miterlimit:10; stroke-width:.25px;"/><path d="M542.1048,370.8888l-5.4432-1.8144-.5928,.3264-.3048,.3672-.408,.8976-.2232,1.1832,.0192,1.344,6.6264,2.2032,.264-2.4168,.0624-2.0904" vector-effect="non-scaling-stroke" style="fill:url(#c); fill-opacity:.7725; fill-rule:evenodd; stroke:#2d2d2d; stroke-miterlimit:10; stroke-width:.25px;"/><path d="M243.228,286.8552l-.2064,1.0944-.9504-.1272-.6504,2.9808-1.2048-.048-.269,1.6152-.84,.9528-.935-.0792-.3646,1.7904-.539-.0792-.3802,1.932-1.9812,2.868-1.553,2.1096,2.1394,.444,.1111,1.6488-3.0588-.096,1.0776-4.8504,.1903-2.6136,.0794-3.012-.1589-1.1256-.9982-2.1552-.3965-1.236,.0953-1.1088,.6185-2.424-2.1401-1.2864-.396,.8736-3.1061-.936-.761,1.9968-1.8382-.5856,1.014-2.82,1.3632,.4272,.3329-.9504,5.5786,2.2656,1.9968,.6504,2.0129,.0144,1.9654-.9024,1.2677-.3504,1.0608-.1416,1.476,.3-.3024,2.9496,.6504,.0144" vector-effect="non-scaling-stroke" style="fill:url(#c); fill-opacity:.7725; fill-rule:evenodd; stroke:#2d2d2d; stroke-miterlimit:10; stroke-width:.25px;"/><path d="M146.2543,567.5928l-3.9432-3.5544-2.503,2.4024-.5554-.54,2.5754-2.652-1.8365-1.7329-.66-.4512-.8047,1.3968-.4481-.3264-1.4556,1.7808-1.4338-.8496,1.8012-3.3192,.4961,.384,1.5492-2.1-1.3716-1.5792,1.6678-1.1688-.1783-1.2744,1.6294-.8712,2.8788,4.1016,2.3568-2.4096-.8153-.8784,.9173-.7992,1.6776,1.8312,1.0838,1.0296,.96-1.1664,.48-.2856,.0878,.564,3.2534-.396,.1315,1.2552-1.4885,.1152,.2724,2.1984,1.4254-.1968,2.0494-.3096,.0895,.8064-.4044,1.0944,.6658,.6504-.9967,1.116-.7183,.0936-.2225,.36-2.4766,.5592-.9888,.3384-4.7474,4.7832" vector-effect="non-scaling-stroke" style="fill:url(#c); fill-opacity:.7725; fill-rule:evenodd; stroke:#2d2d2d; stroke-miterlimit:10; stroke-width:.25px;"/><path d="M142.8801,570.7608l1.2274-.3528,.8179,2.4552-1.0577,.2256-.4092-.1272-.5784-2.2008" vector-effect="non-scaling-stroke" style="fill:url(#c); fill-opacity:.7725; fill-rule:evenodd; stroke:#2d2d2d; stroke-miterlimit:10; stroke-width:.25px;"/><path d="M145.7858,568.1088l-1.6783,.8904-.1109,.2208,.2234,.624,1.9627-.936-.397-.7992" vector-effect="non-scaling-stroke" style="fill:url(#c); fill-opacity:.7725; fill-rule:evenodd; stroke:#2d2d2d; stroke-miterlimit:10; stroke-width:.25px;"/><path d="M624.2472,565.0344l-2.0376,3.8688,1.7184,.7728-.552,1.0824,1.2888,.6624,2.5176-4.9008-2.9352-1.4856" vector-effect="non-scaling-stroke" style="fill:url(#c); fill-opacity:.7725; fill-rule:evenodd; stroke:#2d2d2d; stroke-miterlimit:10; stroke-width:.25px;"/><path d="M870.6624,623.616l-.9624,1.1904-1.524-1.2288-.7464,.9264-.696-.5616,.9936-1.2312,.6408,.516,.7152-.8856,1.5792,1.2744" vector-effect="non-scaling-stroke" style="fill:url(#c); fill-opacity:.7725; fill-rule:evenodd; stroke:#2d2d2d; stroke-miterlimit:10; stroke-width:.25px;"/><path d="M856.752,614.9304l4.272-2.4048,2.6112-2.1672,3.1464,2.688,7.6728,4.6368,2.4528,1.4544,1.7544,1.2816,1.044,1.0584,.4272,.9192-1.1688,.348-1.044,.744-1.0608,.6792-.5232-.1896-.3936,.6336-1.2408-.7608-1.7808-1.092,.4104-.696-6.6912-4.3488-.9648,1.3752-2.1936-1.3752,.468-.8712-1.8336-1.2024-3.2448,4.9992-1.788-1.296-.3456,.4104-1.1568-.6648-.4752,.792-1.2792-1.092,2.688-3.1488-.2208-.0936,.4584-.6168" vector-effect="non-scaling-stroke" style="fill:url(#c); fill-opacity:.7725; fill-rule:evenodd; stroke:#2d2d2d; stroke-miterlimit:10; stroke-width:.25px;"/><path d="M865.6752,619.0896l.3168,.1896,.0792,.696-.8112,1.0776-.6768,.9-1.1712-.6-1.6776,2.688,2.6904,2.9424,.8376-1.1232,2.9592,3.1968,.996,.6648,2.184-3.5592-.5856-.4752,1.2024-1.7256,1.9344,1.2288,1.26,.7968-3.4632,5.2848-1.044-.696-.3792,.6648-1.44-.7608-.6648,1.14,.8232,.8232-.4752,.4248-2.3568,3.0864-.6648,3.6384-2.2464-1.344,.6-1.6464-1.2-.5376-1.0296-.7896,.3648-.6336,1.1688,.6168,2.0736-3.2112-.8856-.6816,1.044-1.4544-2.6424-1.74-.4104,.4104-2.3736-1.992-.3312,.6168,1.0896,.8064-1.1856,1.5504-1.1712-.8856-1.9464,2.7048-.7896-.6648-1.3128,1.6608-.996-.3168-.6192,.7608-.3312,.3144-1.7088-1.0104,.7128-1.0129-1.0296-.492,.8232-1.248,1.2336,.6792,.4128-.9,1.2024,.6792,.3144-.3792-.996-.744,1.3296-1.4088,.9024,.8712,.948-.9984-.7272-.7752,1.7088-2.436,.6-1.1856-.5688-.4584,.2688-.5688,.8064,.4896,2.2944-3.8928,.8232,.4752,1.0752-1.7568,.6384,.6504,2.1936,1.3752" vector-effect="non-scaling-stroke" style="fill:url(#c); fill-opacity:.7725; fill-rule:evenodd; stroke:#2d2d2d; stroke-miterlimit:10; stroke-width:.25px;"/><path d="M120.9576,339.3192l.1121,3.1032-.8508,.0312-.1121-3.1056,.8508-.0288" vector-effect="non-scaling-stroke" style="fill:url(#c); fill-opacity:.7725; fill-rule:evenodd; stroke:#2d2d2d; stroke-miterlimit:10; stroke-width:.25px;"/><path d="M125.2025,330.5544l-1.6572,.108,.0216,.48,.2566,3.8712-1.9313,.2688-5.3602,.3936-.6199-7.8048,6.8633-.7488,1.8816-.1056,.2352,.0648,.1073,.2136,.203,3.2592" vector-effect="non-scaling-stroke" style="fill:url(#c); fill-opacity:.7725; fill-rule:evenodd; stroke:#2d2d2d; stroke-miterlimit:10; stroke-width:.25px;"/><path d="M640.14,211.6881l1.3536-.2539,2.6808,.1692-.9888,9.3098-5.784-.931,.9312-6.9682-.1968-.7618,2.004-.5642" vector-effect="non-scaling-stroke" style="fill:url(#c); fill-opacity:.7725; fill-rule:evenodd; stroke:#2d2d2d; stroke-miterlimit:10; stroke-width:.25px;"/><path d="M644.5824,231.8596l.7464,.113,1.116,1.0157,1.2408,.8326,.4656-1.1568,.4224-.5359,.6792-.0427,10.3104,1.2838,.2544-1.495-.5928-.1128-.7752-8.2385,1.608,.0566-.1272-4.8103-2.0184-.4517-.1968-3.7805,1.044-6.0655-4.5144-.649-.7896,5.4173-6.4608-1.0438-.9312,6.6862,5.9808,.9871-.2808,2.1163-2.4552-.3948,.1968-.8467-1.5216-.1973-.0864,.7901-2.0304-.3108-.8472,6.3199-.4368,4.5134" vector-effect="non-scaling-stroke" style="fill:url(#c); fill-opacity:.7725; fill-rule:evenodd; stroke:#2d2d2d; stroke-miterlimit:10; stroke-width:.25px;"/><path d="M753.9792,363.3792l5.544,2.2968,6.4152-3.8808-.5544-2.1384-1.2672-1.5048-2.2968-1.74-16.0752-10.7712-8.2776-5.1672-2.196-1.4472-.3576,.12-1.7424,5.424-3.7223-1.188-.732,2.376-3.7824-1.008,.2592-.6936-3.5447-1.0704,3.504-8.5512-3.3648-1.308-.4368-.0792-1.1088,4.9104-1.9392-.4752-1.188,3.6024-1.4256,.12,.2376-.912-4.8696-1.3056-.792,1.8216,4.5144,1.7016-3.4848,8.7912,16.908,7.6032,5.424-3.6432,10.4136,3.6816,9.9384,4.4352" vector-effect="non-scaling-stroke" style="fill:url(#c); fill-opacity:.7725; fill-rule:evenodd; stroke:#2d2d2d; stroke-miterlimit:10; stroke-width:.25px;"/><path d="M699.732,389.0976l11.6808,2.1792-4.8696,6.6912,.7128,.792-3.0888,6.8904-8.2368-3.2088,.5952-1.344-.9912-.9504,1.5432-3.9216,1.0704,.4752,.5928-1.3056-.0792-.3576-2.4936-1.3056,3.564-4.6344" vector-effect="non-scaling-stroke" style="fill:url(#c); fill-opacity:.7725; fill-rule:evenodd; stroke:#2d2d2d; stroke-miterlimit:10; stroke-width:.25px;"/><path d="M674.7264,381.0792l.6936-2.0784,5.2464,1.2672,1.008-2.8704,.912,.06,.4944-1.4064,.7728,.2376,.276-1.4448,4.7328,1.5432,1.4256-2.8896,1.3848,.7512-.8712,2.892,5.9016,1.9392-2.376,5.2656-4.1976-1.0272-.7824,2.652-2.2776-.5448,.6648-2.9208-2.0688-.564-.9504,2.7912-5.0688-.792,.4752-1.2264-5.3952-1.6344" vector-effect="non-scaling-stroke" style="fill:url(#c); fill-opacity:.7725; fill-rule:evenodd; stroke:#2d2d2d; stroke-miterlimit:10; stroke-width:.25px;"/><path d="M702.2064,373.0032l-3.0696,6.4344,2.0808,1.008-1.704,3.5064,2.8129,.8496,5.3832-6.4344,3.4848-3.8208,4.7928-4.8696,2.316-1.8624-5.3856-2.3544,1.7616-3.9024,4.4352,1.8216,.516-1.2672-3.7224-1.86,.4344-2.6544-2.256-.7128-8.1192,17.3856-3.7608-1.2672" vector-effect="non-scaling-stroke" style="fill:url(#c); fill-opacity:.7725; fill-rule:evenodd; stroke:#2d2d2d; stroke-miterlimit:10; stroke-width:.25px;"/><path d="M709.9272,376.8624l3.6048-3.9192,3.7008,1.5432-1.86,3.7224-1.9992-.9888-.516,.6336-2.9304-.9912" vector-effect="non-scaling-stroke" style="fill:url(#c); fill-opacity:.7725; fill-rule:evenodd; stroke:#2d2d2d; stroke-miterlimit:10; stroke-width:.25px;"/><path d="M683.3784,309.2496l-.2376,1.0704-1.98-.1992-.6336,2.5536,13.284,3.564,.18-4.3944-4.7328-3.048-.5352,1.7424-5.3448-1.2888" vector-effect="non-scaling-stroke" style="fill:url(#c); fill-opacity:.7725; fill-rule:evenodd; stroke:#2d2d2d; stroke-miterlimit:10; stroke-width:.25px;"/><path d="M691.2384,321.4056l.456-1.344-12.1368-3.4848-.4968,1.2072,12.1776,3.6216" vector-effect="non-scaling-stroke" style="fill:url(#c); fill-opacity:.7725; fill-rule:evenodd; stroke:#2d2d2d; stroke-miterlimit:10; stroke-width:.25px;"/><path d="M690.6744,328.1088l12.3144-6.5328-2.376,7.008,1.1688,.4344-1.6032,4.356-9.8808-3.0672,.3768-2.1984" vector-effect="non-scaling-stroke" style="fill:url(#c); fill-opacity:.7725; fill-rule:evenodd; stroke:#2d2d2d; stroke-miterlimit:10; stroke-width:.25px;"/><path d="M654.6888,323.4456l5.5056,1.8624-.5064,1.9296-.8016-.2568-.9,2.9976-5.0592-1.4352,1.7616-5.0976" vector-effect="non-scaling-stroke" style="fill:url(#c); fill-opacity:.7725; fill-rule:evenodd; stroke:#2d2d2d; stroke-miterlimit:10; stroke-width:.25px;"/><path d="M555.1416,307.6752l2.6928-2.3736-5.3064-2.1384,1.7424-1.3464,2.2584-1.98,.8712-1.3872-3.168-.9888-.8328,1.6224-4.5144-1.6632-10.0176-2.0976-3.0096-.396-1.1472,.276-.5544-.792-4.5144,2.1384h-1.5456l-1.3848,1.5048-3.3264-1.9008-5.424,2.1-.0792,1.068-.396,.5544-1.1496-.672-2.5728,3.6816,2.2176,1.8216,1.584-.6336,1.4256,1.9416,1.5432,.552,.7129,1.584,4.6728-2.6904,3.6024-1.7424,1.2288,.4344,5.148,1.2672,2.4936,10.7304,3.168-1.7016-1.86-5.7024,5.2248,3.6024,2.2176-2.7312,2.6136-2.8128,1.0296-.7512,4.356,1.6224" vector-effect="non-scaling-stroke" style="fill:url(#c); fill-opacity:.7725; fill-rule:evenodd; stroke:#2d2d2d; stroke-miterlimit:10; stroke-width:.25px;"/><path d="M513.0096,334.8792l4.1184,4.5144,.7128-.2376-.7512-1.584,1.4256-.5928,4.6704,5.6232,.8712,1.9392,.6552,2.2368,.8496,.9912,4.6728-2.1192-.4752-.792,4.872-1.5456,3.96,1.3872,2.5344-8.5128-4.872-1.0296-1.9008,7.0872-1.068-.5544-2.6928-2.5728,.1584-1.3464,.1584-1.6248,.3552-1.068-.7512-1.0296,2.0184-.8328-4.5528-2.9304-3.0504,2.376-4.0776-4.5936-2.4936-.9888-2.9304-.912-.8712,.4368,3.84,4.632-5.3856,3.6432" vector-effect="non-scaling-stroke" style="fill:url(#c); fill-opacity:.7725; fill-rule:evenodd; stroke:#2d2d2d; stroke-miterlimit:10; stroke-width:.25px;"/><path d="M535.284,329.0184l.336-2.2176,6.5328,1.0104,.0792,1.7832-.0192,2.1576-.5928,1.7232-.4944,2.0976-5.8416-6.5544" vector-effect="non-scaling-stroke" style="fill:url(#c); fill-opacity:.7725; fill-rule:evenodd; stroke:#2d2d2d; stroke-miterlimit:10; stroke-width:.25px;"/><path d="M529.7208,321.4752l-2.2584,3.624,.9504,.8304-1.8408,2.6736-1.8408-.672-1.98-.4176-1.5047,.06-.9312,.06-7.2456-3.3456-5.5824-3.6432-4.5552,3.6432-7.9584-10.8504,1.7424-2.1384,2.2968-2.2968,2.1768-1.2672,8.2776,8.4336,4.4352-6.6912-6.6936-5.6232-5.9784,3.4056-3.7224-2.772,9.5832-6.2568,1.2264,.3576,1.8216,2.8512,1.98,1.5048,2.8104,1.6632,3.0504,3.0096,3.3264,2.1384,2.0976,1.4256,.0792-.7536,7.3656-2.772,.8712,3.1296-7.0872,2.1768,.5544,1.9416,1.6224,2.6904,1.2288,1.2672,1.6824,2.6136" vector-effect="non-scaling-stroke" style="fill:url(#c); fill-opacity:.7725; fill-rule:evenodd; stroke:#2d2d2d; stroke-miterlimit:10; stroke-width:.25px;"/><path d="M516.5136,357.2712l1.704-2.4552,1.7424,1.308,1.3848-1.188,1.7832,1.9392-.0408,2.6136-.4752,.5952-6.0984-2.8128" vector-effect="non-scaling-stroke" style="fill:url(#c); fill-opacity:.7725; fill-rule:evenodd; stroke:#2d2d2d; stroke-miterlimit:10; stroke-width:.25px;"/><path d="M525.8592,350.976l3.9792-2.5728,1.3464,1.464,1.0296-.3768-.5736-1.3464,1.524,.1008,.732,.7704,.4368,1.2672,.4753,2.2776,2.2176-.8304,.2976-.1584-.792-1.9224,1.524-.5328v2.4336l.6144,1.5048,.8112,1.2072,.3648,.5544-1.7424,3.3264,1.8624,1.1304,1.1471-1.4664,.8712,.8904-.2376,.5352,1.188,.7128-.3168,1.0488-1.7208,.12-1.1088-.06h-1.5048l-1.188-.06-1.3871,.0408,.456-.5736-2.3352-1.5048-1.4856,1.7616-1.2072-1.3464-.9912,1.0488-.0192,.3576-1.6824,.0192-1.7616-.2376-.6552-.0408-1.3656-.3744-1.0488-.456,.0792-1.524,.1584-1.1304,.336-.9288,3.2664-2.436-1.5936-2.6928" vector-effect="non-scaling-stroke" style="fill:url(#c); fill-opacity:.7725; fill-rule:evenodd; stroke:#2d2d2d; stroke-miterlimit:10; stroke-width:.25px;"/><path d="M482.2536,352.6992l9.7608-2.712,.732,1.464-3.84,1.2264,1.2672,1.6848,.6912,1.3248,.5736,.7536,.7536,.3768,.8304,.4752,1.1496,.9096,.4152,.8904,2.2176,5.2464-5.1072-1.6632-4.356-2.4936-6.5736-7.008,1.4856-.4752" vector-effect="non-scaling-stroke" style="fill:url(#c); fill-opacity:.7725; fill-rule:evenodd; stroke:#2d2d2d; stroke-miterlimit:10; stroke-width:.25px;"/><path d="M531.888,362.3208l3.9216,.0384,4.9488,.0408,1.7016,.3552-.6336,1.98-2.8104,2.4168-3.4848,2.1384-1.2264,2.0184-.1584,1.188-.7129,.4752-.912-1.6224-1.1088-1.8624-1.1472-1.464-1.0704-.4752,2.6928-5.2272" vector-effect="non-scaling-stroke" style="fill:url(#c); fill-opacity:.7725; fill-rule:evenodd; stroke:#2d2d2d; stroke-miterlimit:10; stroke-width:.25px;"/><path d="M504.744,357.2136l1.0296-1.5456-.6936-.6336,.8712-.9504,2.9904,1.5648-2.7528,3.96-1.4448-2.3952" vector-effect="non-scaling-stroke" style="fill:url(#c); fill-opacity:.7725; fill-rule:evenodd; stroke:#2d2d2d; stroke-miterlimit:10; stroke-width:.25px;"/><path d="M563.1912,320.1288l-.7344,2.2584,7.6224,2.4744,.852-2.4144-7.74-2.3184" vector-effect="non-scaling-stroke" style="fill:url(#c); fill-opacity:.7725; fill-rule:evenodd; stroke:#2d2d2d; stroke-miterlimit:10; stroke-width:.25px;"/><path d="M561.1512,326.1096l-.4752,1.464,7.3248,2.3568,1.0104-2.5752-3.0288-.9096-.5952,1.1088-4.236-1.4448" vector-effect="non-scaling-stroke" style="fill:url(#c); fill-opacity:.7725; fill-rule:evenodd; stroke:#2d2d2d; stroke-miterlimit:10; stroke-width:.25px;"/><path d="M540.5592,290.1552l6.852,.7128,.4344-3.3672,3.3264,.12,.5544-6.5352-10.0968-1.1088v-2.1768l-9.384-.5544,.7128-6.4944-.7128-5.2272-.6744-3.5232-1.5432-.9504-1.308,.276-.3168,3.0504-1.8216-.0408-1.2264,2.0208,2.0592,1.3464,2.0592,.396-.2784,12.948,3.0504,.396,9.2256,.8304-.912,7.8816" vector-effect="non-scaling-stroke" style="fill:url(#c); fill-opacity:.7725; fill-rule:evenodd; stroke:#2d2d2d; stroke-miterlimit:10; stroke-width:.25px;"/><path d="M454.356,261.4464l9.2664-2.2968,1.584,.8712,3.3648,3.0888-4.6728,2.4552,3.2472,6.336,5.544-2.2968,3.8424,3.8016-6.1776,3.3264-3.5256-4.08-3.2064,1.2672,1.0296,2.4168-4.5528,1.464,.7512,2.376,2.8128-.396,3.84,3.84,4.7904,6.7728,3.2088,5.2272-.6336,2.2944-9.3456,5.544-2.376-5.5032-1.8216-3.3648-1.0296-4.2768-14.1768,2.2176,1.0704-5.544,12.7104-1.3872-2.0592-7.9176-10.3752,1.2672,.0408-2.772,9.6216-1.1088-1.9392-7.3272-.8328-6.2952" vector-effect="non-scaling-stroke" style="fill:url(#c); fill-opacity:.7725; fill-rule:evenodd; stroke:#2d2d2d; stroke-miterlimit:10; stroke-width:.25px;"/><path d="M462.0384,296.8464l-15.9576,3.3264,.1968,1.2864,16.6512-3.5448-.8904-1.068" vector-effect="non-scaling-stroke" style="fill:url(#c); fill-opacity:.7725; fill-rule:evenodd; stroke:#2d2d2d; stroke-miterlimit:10; stroke-width:.25px;"/><path d="M465.504,303.3408l-15.9,2.256,.1992,1.5048,16.7496-2.4936-1.0488-1.2672" vector-effect="non-scaling-stroke" style="fill:url(#c); fill-opacity:.7725; fill-rule:evenodd; stroke:#2d2d2d; stroke-miterlimit:10; stroke-width:.25px;"/><path d="M475.1856,257.052l2.376-.3576,2.256,5.6232,4.9104,.5544,3.3264,1.5432,.7512,1.7832-4.9488,.792-2.9688-.2784-2.2176,.9504-3.3672-5.94,1.8624-.672-1.98-3.9984" vector-effect="non-scaling-stroke" style="fill:url(#c); fill-opacity:.7725; fill-rule:evenodd; stroke:#2d2d2d; stroke-miterlimit:10; stroke-width:.25px;"/><path d="M491.7768,267.0288l.5928-9.78,1.4664,.0408,.3552-1.4664,3.288,.2376,.1176,2.5752,.396,.672,5.94-.672,1.3056,1.8216-6.8088,1.4232-.0408,2.6928,1.188-.0792,.7128,3.0096-.672,.6336-.0792,1.308,1.464-.1992,.3552,4.2384-2.6904-1.1496-1.8216-2.0976-2.2968-1.5456-2.772-1.6632" vector-effect="non-scaling-stroke" style="fill:url(#c); fill-opacity:.7725; fill-rule:evenodd; stroke:#2d2d2d; stroke-miterlimit:10; stroke-width:.25px;"/><path d="M491.5176,268.692l-8.1552,4.6344,.8712,2.5728-2.2176,1.92,2.196,3.0696,1.7424-1.3464,1.188,2.7312,.9504,1.4256,1.5456,1.2672,1.7016,.9912,2.892-2.7336-4.476-4.5528,4.1592-3.6816-1.584-1.4256-4.8312,2.9304-2.376-2.0592,4.2768-2.4168-.5952-.7512,3.4056-1.704-.6936-.8712" vector-effect="non-scaling-stroke" style="fill:url(#c); fill-opacity:.7725; fill-rule:evenodd; stroke:#2d2d2d; stroke-miterlimit:10; stroke-width:.25px;"/><path d="M495.6168,289.2048l4.8696-6.0192-2.0568-3.8016,1.3464-.7512,2.256,3.6408,1.4256-1.3464-.396-2.1768,1.5432-.7128,.8712,1.4256,.792,1.9008,.792,1.3848,1.4664,2.0592,2.1768,1.8216-.5544,.8328-3.84-2.3376-1.188,2.1792-.9504,1.3056-1.6632,2.3376,1.3464,1.7016-1.0704,2.2584-4.5528-3.0096-2.6136-2.6928" vector-effect="non-scaling-stroke" style="fill:url(#c); fill-opacity:.7725; fill-rule:evenodd; stroke:#2d2d2d; stroke-miterlimit:10; stroke-width:.25px;"/><path d="M584.1168,281.2056l11.088,3.4848,.7128-2.2176-12.7512-3.6816-1.7424,1.1064-2.256,2.0592-.912,1.2288-.5136,1.3464,.3552,1.2672,1.6248,.7128-.4368,2.5728-.8304,2.9304,.7128,2.4552,.276,.12,4.6728-13.3848" vector-effect="non-scaling-stroke" style="fill:url(#c); fill-opacity:.7725; fill-rule:evenodd; stroke:#2d2d2d; stroke-miterlimit:10; stroke-width:.25px;"/><path d="M594.8472,286.5312l-.3552,1.7616,8.0376,2.8704-.7728,2.3568,7.0488,1.8624-.0384-1.5456,6.612-.396,.4752-1.6632-6.612-.9096-.2784,.7512-14.1168-5.088" vector-effect="non-scaling-stroke" style="fill:url(#c); fill-opacity:.7725; fill-rule:evenodd; stroke:#2d2d2d; stroke-miterlimit:10; stroke-width:.25px;"/><path d="M540.9168,400.8288l1.3272-.0384,2.3352,.5736,4.02,1.464-1.248,2.832-6.672-2.3952-.1776-1.4664,.4152-.9696" vector-effect="non-scaling-stroke" style="fill:url(#c); fill-opacity:.7725; fill-rule:evenodd; stroke:#2d2d2d; stroke-miterlimit:10; stroke-width:.25px;"/><path d="M593.7792,197.556l3.6816,.594,.0792,.7126,2.6544,.5148,.7128-1.3066,1.6632,1.1086,.9888,.396,.912-2.455,2.7312,.7524,.7536-1.3068,1.9776-.2772,1.2672,1.0692-2.3736,5.1871,.5544,.7524-.2376,1.386,2.2944,.198,.1584-.8316,4.752,.8316,.3576,1.1878-1.1088,4.435-6.1776-.3564-.1968-1.5442-1.2672-1.3464-1.1088-1.5442,.9096-1.2672-1.5048-1.9008-1.2264,.6336-.8328,1.8216-1.068,2.7717-.4752,2.653-.5544,.2376-3.3672-.8712-4.9488-12.2354" vector-effect="non-scaling-stroke" style="fill:url(#c); fill-opacity:.7725; fill-rule:evenodd; stroke:#2d2d2d; stroke-miterlimit:10; stroke-width:.25px;"/><path d="M627.9528,190.4877l2.6712,1.188-.5352,1.6037-.1968,.7721,2.7528,1.2276-.4968,1.0889,1.1688,.8909-.852,1.3663-2.196-.5148-2.4553,4.5535-1.2288-1.1482-2.0592-1.3068-.732-.3761,.9504-4.1182,3.2088-5.227" vector-effect="non-scaling-stroke" style="fill:url(#c); fill-opacity:.7725; fill-rule:evenodd; stroke:#2d2d2d; stroke-miterlimit:10; stroke-width:.25px;"/><path d="M640.0872,195.576l2.832,1.0099-2.2368,5.9988,1.0104,.2575-.5544,1.4254-1.0104-.2177-.6744,1.8413,.9912,.6929-.2376,.594-1.188-.1584-.5544,.99-2.6136-1.1484,.8712-2.653,1.068,.2772,2.9712-7.4047-.792-.6732,.1176-.8316" vector-effect="non-scaling-stroke" style="fill:url(#c); fill-opacity:.7725; fill-rule:evenodd; stroke:#2d2d2d; stroke-miterlimit:10; stroke-width:.25px;"/><path d="M632.7816,205.7328l1.368,.5148,2.988-7.3058-1.464-.3365-2.892,7.1275" vector-effect="non-scaling-stroke" style="fill:url(#c); fill-opacity:.7725; fill-rule:evenodd; stroke:#2d2d2d; stroke-miterlimit:10; stroke-width:.25px;"/><path d="M663.6888,215.6916l-.5544,4.2766,7.0488,.9502,1.0296-2.3362,3.6816,.9504,5.1864-5.029,.5952-2.4946,15.4032,2.6134,.1176-1.9402-1.0296-2.6532-13.0272-2.0194-1.5048,3.247-5.2656-1.0296,1.068-2.0985-2.3352-.8316,.1176-4.1578-2.8104-.3168,1.308,4.6726-.1992,1.1484-2.0592-.2376-2.2968,8.8301-4.4736-1.5442" vector-effect="non-scaling-stroke" style="fill:url(#c); fill-opacity:.7725; fill-rule:evenodd; stroke:#2d2d2d; stroke-miterlimit:10; stroke-width:.25px;"/><path d="M685.5264,227.1352l3.168,.2573,1.2264-.594,.576-1.7818,.4752-.792,4.1952,2.5145,.7128-.0396,1.644,.1781,.2568,1.0692,.6744-.0197,2.04-11.4437-2.1792-.2575-.7128,1.4849-.8904,3.4649-9.84-1.6236-1.3464,7.583" vector-effect="non-scaling-stroke" style="fill:url(#c); fill-opacity:.7725; fill-rule:evenodd; stroke:#2d2d2d; stroke-miterlimit:10; stroke-width:.25px;"/><path d="M756.96,286.452l.9096,1.5048,5.9016-3.6816,.1968,.8712,12.8688-.396-.2376-2.376,2.8128,.5544,1.2264-6.5736,7.1688,3.6432,4.356-6.7728-.1992-1.464-1.98-.1992-5.9784-2.8104,.0792-2.376-6.0192-1.2672-.4368,2.5344-2.9688-.396-.792-2.4936-3.6432,.5544-.5544,4.1184-3.168,.7104v2.1384l1.188,.12-.0792,1.8216,.912,.4344,.0792,.6336,3.2472-.5136,3.1656-.5544,.4752,3.6816-7.9584,3.7632-1.1472-1.0296-2.0208-2.5752-1.068,3.4464-3.5256-.5952-.5136,1.704-.912-.2376-.4752,2.652-.9096,1.4256" vector-effect="non-scaling-stroke" style="fill:url(#c); fill-opacity:.7725; fill-rule:evenodd; stroke:#2d2d2d; stroke-miterlimit:10; stroke-width:.25px;"/><path d="M716.6304,389.1984l5.1864,1.8312-.5928,1.524-5.496-1.2072,.9024-2.148" vector-effect="non-scaling-stroke" style="fill:url(#c); fill-opacity:.7725; fill-rule:evenodd; stroke:#2d2d2d; stroke-miterlimit:10; stroke-width:.25px;"/><path d="M730.668,433.1016l14.4528,4.7904-1.1688,3.5448-12.0768-4.1376-.4752,.7512-2.2968-.7128,1.5648-4.236" vector-effect="non-scaling-stroke" style="fill:url(#c); fill-opacity:.7725; fill-rule:evenodd; stroke:#2d2d2d; stroke-miterlimit:10; stroke-width:.25px;"/><path d="M620.8824,543.6384l-2.5128-.912-3.0696,6.792,1.8216,1.3248-3.8208,7.8024-.8712,1.8216,2.4552,2.256-2.9712,5.7816,3.7632,2.6928,5.2056-27.5592" vector-effect="non-scaling-stroke" style="fill:url(#c); fill-opacity:.7725; fill-rule:evenodd; stroke:#2d2d2d; stroke-miterlimit:10; stroke-width:.25px;"/><path d="M617.736,566.8008l2.652-4.0776,2.5752-5.148-1.4256-1.3464,5.3856-11.1672-5.2272-1.3848-3.96,23.124" vector-effect="non-scaling-stroke" style="fill:url(#c); fill-opacity:.7725; fill-rule:evenodd; stroke:#2d2d2d; stroke-miterlimit:10; stroke-width:.25px;"/><path d="M646.2864,584.7984l.4344,2.376,6.8496,2.3376-.9888,2.8896-.9912,2.1768,2.6928,1.3872,2.4168-3.7632,4.752,2.0208,.7128,1.5648,4.4328,2.5128,1.2672,.5352,2.496-3.6024-24.0744-10.4352" vector-effect="non-scaling-stroke" style="fill:url(#c); fill-opacity:.7725; fill-rule:evenodd; stroke:#2d2d2d; stroke-miterlimit:10; stroke-width:.25px;"/><path d="M677.4288,594.3624l.6144-2.496-7.9608-3.384-1.6632,.1776-.9696,1.0872,9.9792,4.6152" vector-effect="non-scaling-stroke" style="fill:url(#c); fill-opacity:.7725; fill-rule:evenodd; stroke:#2d2d2d; stroke-miterlimit:10; stroke-width:.25px;"/><path d="M654.8976,604.38l2.8512-4.0392,2.8896,.9888,2.6136-4.8696,4.5552,2.376,2.652-3.0096,18.0576,7.2456,1.2264,3.4848-3.8808-.1584-1.2264,6.2976,4.236,1.2672,1.9416,1.464-.6336,2.1768-4.5144-1.5432-.8712,1.5432-4.2384-1.068-1.3056,6.336-1.5048-.1992-2.8512,6.8904-1.3464,.6336-1.98,3.8016-16.6704-29.6184" vector-effect="non-scaling-stroke" style="fill:url(#c); fill-opacity:.7725; fill-rule:evenodd; stroke:#2d2d2d; stroke-miterlimit:10; stroke-width:.25px;"/><path d="M769.3152,680.6832l10.452,7.8408,16.4736-6.8904,9.0288-5.0688,2.4552,3.2472,8.9472-5.2272,5.0688-6.492,8.712-3.8016,12.7512-6.4152-11.484-10.0584-17.9784,7.2864-13.62,2.8512-8.9496-11.88-8.6328,12.8304-15.0456,16.3128,1.8216,5.4648" vector-effect="non-scaling-stroke" style="fill:url(#c); fill-opacity:.7725; fill-rule:evenodd; stroke:#2d2d2d; stroke-miterlimit:10; stroke-width:.25px;"/><path d="M831.9576,647.976l4.5936-9.3456,8.712,.9504-4.1184-9.5016,2.0592-2.5344,8.3928,4.5936,8.8704,4.908,6.0192,3.0096-6.8112,4.2768-7.6032,6.8112-4.7496,3.4848-4.5936,3.96-10.7712-10.6129" vector-effect="non-scaling-stroke" style="fill:url(#c); fill-opacity:.7725; fill-rule:evenodd; stroke:#2d2d2d; stroke-miterlimit:10; stroke-width:.25px;"/></g></svg>