<?xml version="1.0" encoding="UTF-8"?><svg id="a" xmlns="http://www.w3.org/2000/svg" viewBox="0 0 1382.4 777.6"><g id="b"><g id="c" transform="matrix(1,0,0,1,0,0)"><path d="M541.4904,130.4466l.7632-.9677,1.1832-.7798,1.6296-.1882,1.332-.3763,1.9872-.5376,1.3968-.2688,2.0304-1.6397,1.3752-.3495,.2112-2.0162v-3.2258l1.0368-2.957,1.692-2.3386,1.9464-.1882,2.1984,.215,2.6232,.215,.4656,2.285,3.5112,.4838,3.7632,1.0214-.084,2.6614,1.4592,3.0912,2.3064,.4841,1.0992-3.6559,4.188-.9142,3.216,.8066,4.9896,.9139,1.8624-2.4194,.168-3.9785,3.6816-1.9894,7.3608,.7529,2.0712,4.7849,4.7808,4.9462,4.272,3.2258,3.3,5.8601-5.34,3.629-.4224,4.6234,1.776,6.2364-1.2696,6.4512-.3384,1.7203-10.236-1.559-14.976-5.9673-43.0104-18.0907" vector-effect="non-scaling-stroke" style="fill-rule:evenodd;"/><path d="M636.6168,147.731l2.2848-1.8278,2.9184-1.6666,1.86-.4838,3.2592,2.688,3.0024,1.7741-.3816,2.7418-.4632,2.4192-2.4552,2.2042-3.7632,2.6342-3.3432,.6451-4.7376-2.903-1.1832-3.2794,3.0024-4.9459" vector-effect="non-scaling-stroke" style="fill-rule:evenodd;"/><path d="M649.2744,164.7189l7.4256,2.0429-.2976,.215-.084,.672-.9504-.1075-.108,.5645,.8688,.3763-.1488,8.171-1.0992-.0806-1.7568-.8599-1.7976-.2688-.7392-2.3117,.4224-1.6934,.36-2.3383-2.0304-1.129-.7608-1.5859,.696-1.6666" vector-effect="non-scaling-stroke" style="fill-rule:evenodd;"/><path d="M866.748,385.9031l-.264-.3456,.3264-4.3104-.3264-.9552,.1824-2.5824,.5088-4.4928,.5688-3.2112,.3264-.468,1.6248,.0624,.2856-3.924,.06-1.2816,.0816-1.5432-.3648-1.6272-.8736-1.8696-.4896-1.4232,1.992-3.132,3.5376-4.5936,1.7088-1.4232,1.5432-2.316,2.6832-2.0736,1.0584-2.3376,6.6671,.732-.1632,2.1144-.06,4.9992-.2448,3.8232-.2832,3.9432,.6096,4.1064,.2016,2.6016,3.0504,1.992,5.1624,.7728,.0048,.0552,.0047,.0552,.0024,.0552,.0024,.0552,.0024,.0552,.0024,.0552v.0552l-.0024,.0552v.0552l-.0024,.0552-.0024,.0552-.0048,.0552-.0023,.0552-.0072,.0552-.0048,.0552-.0072,.0552-.0072,.0528-.0072,.0552-.0096,.0552-.0096,.0528-.0096,.0528-.012,.0552-.012,.0528-.012,.0528-.012,.0528-.0144,.0528-.0144,.0528-.0144,.0504-.0168,.0528-.0168,.0504-.0168,.0504-.0192,.0504-.0192,.0504-.0192,.0504-.0192,.048-.0216,.048-.0216,.048-.0216,.048-.024,.048-.0216,.0456-.024,.0456-.0264,.0456-.024,.0456-.0264,.0456-.0264,.0432-.0264,.0432-.0288,.0432-.0288,.0408-.0288,.0432-.0288,.0408-.0288,.0408-.0312,.0384-.0312,.0384-.0312,.0384-.0336,.0384-.0312,.036-.0336,.036-.0336,.036-.0336,.0336-.036,.0336-.0336,.0336-.036,.0312-.036,.0312-.036,.0312-.036,.0312-.0384,.0288-.036,.0264-.0384,.0288-.0384,.0264-.0384,.0264-.0384,.024-.0408,.024-.0384,.024-.0408,.0216-.0408,.0216-.0408,.0192-.0408,.0192-.0408,.0192-.0408,.0168-.0408,.0192-.0432,.0144-.0408,.0144-.0432,.0144-.0408,.0144-.0432,.012-.0432,.0096-.0432,.012-.0408,.0096-.0432,.0072-.0432,.0072-.0432,.0072-.0432,.0048-.0456,.0048-.0432,.0048-.0432,.0024-.0432,.0024h-.0864l-.0432-.0024-.0456-.0024-.0432-.0024-.0432-.0024-.0432-.0072-.0432-.0048-.0432-.0072-.0432-.0072-.0432-.0096-.0432-.0096-.0408-.0096-.0432-.012-.0432-.012-.0432-.0144-.0408-.0144-.0432-.0144-.0408-.0168-5.1384,3.8928-5.1888,3.7896-.768,.4728-.7728,.4584-.78,.4392-.7872,.4224-.7896,.4056-.7968,.3888-.8016,.372-.8064,.3528-.8112,.3384-.816,.3192-.8208,.3-.8232,.2856-.9744,.5712-.9816,.552-.9912,.528-.996,.5088-1.0032,.4848-1.0104,.4656" vector-effect="non-scaling-stroke" style="fill-rule:evenodd;"/><path d="M835.416,355.8719l7.6104-4.8456,5.6376-4.716,11.3568-9.2976,13.1712-10.4352,2.6832,3.5232,.4344,4.176-2.0328,.1344-.0552,.9768,.0288,3.5496-.1896,1.1928-.6504,1.1664-.9768,2.4648-.8664,1.464-.9504-.732-1.476-.5136-1.3896,2.0448-1.0896,1.3896-.2712,.7056-.5712,2.0856,.2448,1.4904-.1632,2.0616-9.6816-.78-.2184-.6096-.3792-.1224-4.6608-.4056-.948,1.7616,1.3272,.8928-.108,2.8464,.4872,2.0064-2.3568,.216-.8424,.0816-.324,1.8432-.5976,1.8696-1.7616,.408-2.9544-.2184-.96-1.6992,.96-7.9416-2.5056-.1488-.9624,7.344-4.8792-.84,.8808-4.3896" vector-effect="non-scaling-stroke" style="fill-rule:evenodd;"/><path d="M847.572,344.1215l-.42-.4344h-.5136l-.5712,.2976-.5808-.2424-.5712-.1632-.5952-.3936-.6504-.6624-.4871-.5016-.0288-.2712-.0528-1.1808-1.6128-.3648-5.8008-1.0296,.4608-1.9248,7.02,1.2864,.3264-.8736,.2832-.3528,2.508,.4608,.2304-1.2192,1.1928,.0408,3.6576,.2568,.1896,.9768-.2016,1.0152-.1104,1.1136-.0936,1.0008-3.5784,3.1656" vector-effect="non-scaling-stroke" style="fill-rule:evenodd;"/><path d="M868.3344,415.1399l-.3384-7.3992,.2568-2.0328,.312-1.6944h.9624l.1224-2.6136,4.8504,.4608,.1368,3.6048,.1488,.0744,.012,4.3152-.528,1.3416-1.5312,.5424-.0816,.7176-.2832,.1368-.312,.42-.0288,.84-.1608,1.152-3.5376,.1344" vector-effect="non-scaling-stroke" style="fill-rule:evenodd;"/><path d="M857.208,412.9799l.2856-3.2928,.012-3.864,5.7192,.1488-.0936,3.7272-.1896,1.4496,.0792,1.2744,.1632,1.5312-.1896,.3528-.2304-.0408-5.556-1.2864" vector-effect="non-scaling-stroke" style="fill-rule:evenodd;"/><path d="M865.2432,415.3775l-.2976,3.1704-1.0824-.0264-.0816,1.7496,.9624,.12,.0384,.8016-1.8553-.5016-.5688,.12-.0408,3.3888-4.8792-.4344-.0672-.3504-.1368-.0408,.0288-.1776-.2592-.108-.0528-.84-3.6456-.108-.1488-.8808-5.8416,.0816,.0816-1.0848-1.1928-.1224-.2856-.6912,.1896-1.056-.0528-.204-1.0176-.1344,.2856-3.972-.9768-.1488,.2856-4.8912,3.4968,1.4088,3.876,1.5168,3.0624,.8136,5.5008,1.2192,4.6752,1.3824" vector-effect="non-scaling-stroke" style="fill-rule:evenodd;"/><path d="M820.8624,609.804l.6144-.6144-2.2416-2.0592-.5064-7.6608,4.1208-1.5192,2.8176-.288,2.748-1.1568,2.1672-2.2416,2.5296-2.1672,.5064-5.5656,.7224-3.468,6.432,1.5888,3.1824,1.2288,.36,5.928,2.892,.6504,2.3112-1.3752,3.4704-1.8072,1.0128,1.1568-.2184,2.604-1.4448,3.18-4.3368,6.432-1.5912-4.5528-1.6608-.9408-3.108-.5784-4.9152,1.4448-2.3136,2.892-2.7456,2.82-2.1696,2.6736-1.5168,2.892v2.3112l1.6632,1.0848,3.8304,.6504,3.6144-.072,1.8048,.5784-2.4576,.7224-4.7688,.5064-3.4704,1.0848-1.5168-.5064-5.8176-5.856" vector-effect="non-scaling-stroke" style="fill-rule:evenodd;"/><path d="M844.6944,612.6407l11.7456-14.6712,3.6864-4.2288,3.468-4.3728,1.5912-.9024,1.8432,1.2648,1.4808,.216,2.1336,1.3368,.36,1.6632,.8688,1.1568,3.252,1.5168-1.6992,1.8792-2.5296,3.8304-3.324,4.1208-2.748,3.6504-4.5528,3.9024-4.8432,2.5656-6.18,2.2776-2.3832-2.6016-2.1696-2.604" vector-effect="non-scaling-stroke" style="fill-rule:evenodd;"/><path d="M834.5112,402.4967l.2784-.492,1.26-.6168,2.4864-1.2072,1.9848-.9048,1.7976-.6696,5.4936-2.5776,.2496,3.936-5.5176,.108-.0288,.5544-.2856,.1512-.3216,5.6616-1.6992-1.4472-4.5072-1.8432-1.1904-.6528" vector-effect="non-scaling-stroke" style="fill-rule:evenodd;"/><path d="M849.9312,395.2511l3.1848-1.4304-.144,2.808-2.8968-.2136-.144-1.164" vector-effect="non-scaling-stroke" style="fill-rule:evenodd;"/><path d="M853.4736,396.9143l4.632,.144,1.092,.6432,.4104,1.5216-.3744,.984-.948,.2136-1.0752,1.236-.1608,2.4312-3.9168-.1416,.3408-7.032" vector-effect="non-scaling-stroke" style="fill-rule:evenodd;"/><path d="M843.7776,374.8223l1.1976-9.2304,4.92,.8064-.4296,3.0936,1.2528,1.8264,1.0728,.84,4.008,.7512-.0552,1.932-3.1824,4.9368-.8592,2.6832-.3216,3.828-4.1856-.3936,.7512-4.2024,.66-.036,.3768-3.4704-.8952-.0912,.1248-2.5032-1.752-.18-.2856,2.4336-1.3056-.2856,.0168-2.3976-1.1088-.3408" vector-effect="non-scaling-stroke" style="fill-rule:evenodd;"/><path d="M855.996,359.7263l8.8008,1.0728-1.3968,2.2896-7.7808-1.1616,.3768-2.2008" vector-effect="non-scaling-stroke" style="fill-rule:evenodd;"/><path d="M851.2536,352.1063l4.08,.6792,.2856,5.8128-.7872,5.976-3.0408-.4128,.5544-5.1336-.7512-1.5552,.108-2.7192-1.164-.9672,.7152-1.68" vector-effect="non-scaling-stroke" style="fill-rule:evenodd;"/><path d="M870.5208,347.5439l3.4152,1.9488-1.3944,2.04-2.5128-2.0208-1.2072,.768-.7872-.4824,.9744-1.6536,.7608,.2232,.7512-.8232" vector-effect="non-scaling-stroke" style="fill-rule:evenodd;"/><path d="M862.632,421.0199l3.4152,.5352,1.092,2.7912,1.5744,.7344,.3768-1.5216,.0336-2.0208,3.1848,.144-.072,1.788,1.9872,.1248,1.3056,.216,.072-5.0808,.1968-1.968,.7512-1.8792,.624,.252,.2328,5.472,.2688,2.3448,4.08,.2136,2.2896-.696,.0888-1.1112,3.4872,.4488,.108,4.7928-2.7192,.0552,.0888,1.3776-3.4344,.1248,.18,2.2704-1.4856,.0552,.1608,1.0536-1.0368,.0912,.1608,1.0008-2.4696-.7152-1.7352-.3408,.5376-1.0536-.1776-1.6104-1.5576-.3408-1.1256-3.864-1.3608-.0528-.4824,.912-.8952-.1608-.1608,1.1448-1.6104-.1248-1.5912-.3216,.0888-1.164-4.4904-.8592,.0192-3.0576" vector-effect="non-scaling-stroke" style="fill-rule:evenodd;"/><path d="M822.3552,407.4503l.0912-3.2544-7.62-1.0728-.8232,1.8408-1.6296-.4992,2.5944-8.8008,10.464,2.0376,2.004,.4296,.5544-3.0408,1.8792-.1248-.3768,5.3304-.4992,2.4336-.7344,3.9-3.8088,2.1624-.4848-1.1976-1.6104-.144" vector-effect="non-scaling-stroke" style="fill-rule:evenodd;"/><path d="M842.0232,398.2295l-.5616,.1176-.288-4.2312,.8688-.1704,.0888-1.6368,3.0048,.564,.1272-2.2272,3.2448,.5184-.2232,3.8736-2.1816,1.3224-4.08,1.8696" vector-effect="non-scaling-stroke" style="fill-rule:evenodd;"/><path d="M835.4688,403.4807l4.548,1.7928,1.8816,1.4112-.3576,5.1744-6.4512-.3816,.3792-7.9968" vector-effect="non-scaling-stroke" style="fill-rule:evenodd;"/><path d="M821.8056,410.9183l6.732-4.1568-.684,2.5872-.1008,2.3304-4.0104-.4032-.1008,.6936-1.6464-.0888-.2232-.2808,.0336-.6816" vector-effect="non-scaling-stroke" style="fill-rule:evenodd;"/><path d="M827.9544,412.6751l3.204,.2352,.2016,.2016,.1896,.6384-.336,1.1664h-1.2096l-2.2056-.2928,.156-1.9488" vector-effect="non-scaling-stroke" style="fill-rule:evenodd;"/><path d="M902.1432,393.8039l9.2976-.6048,1.0968,9.1848,.0671,2.1504h-9.8328l-.6288-10.7304" vector-effect="non-scaling-stroke" style="fill-rule:evenodd;"/><path d="M894.6624,353.4599l2.3976-.2688,.0671-4.6368v-4.7256l1.4329-.6504,1.6584-.6264,2.0592-1.1208,3.9888,7.1232,.6936,4.3248,.7847,5.5992,2.5296-.1344,.4488,.492,.6264,.9192,1.2096,2.1288,1.2096,3.0696-.1344,1.7232-2.4864,.4272-1.5888-5.8704-12.9936,7.08-.5136-1.4112-5.2872-.8064-2.868-1.7928-.156-1.7712,7.5936-.4032,.2232,.5376-.4704-4.9056-.4247-4.3008" vector-effect="non-scaling-stroke" style="fill-rule:evenodd;"/><path d="M871.164,315.2015l5.04-.8064,1.2768-.3144,.4704,1.524,.2688,2.3304-.828,1.2096-5.0184,4.1208-1.2096-8.064" vector-effect="non-scaling-stroke" style="fill-rule:evenodd;"/><path d="M855.4176,322.4591l.3792-5.6232h3.0024l.2688,5.5776-3.6504,.0456" vector-effect="non-scaling-stroke" style="fill-rule:evenodd;"/><path d="M796.6152,380.4767l1.9056-9.6096,3.2928,.8064-.3816,2.5536,6.6312,1.0968-.7392,2.508-2.508-.3792-.2016,1.3872-1.1208,.024,.1104-1.8816-2.5752-.6288-.6048,4.6152-3.8088-.492" vector-effect="non-scaling-stroke" style="fill-rule:evenodd;"/><path d="M787.4088,392.9975l2.8896,.6504,.1344-.8064,.2016-.9408,4.2336,1.0968-.3576,2.7336-7.572-1.7712,.4704-.9624" vector-effect="non-scaling-stroke" style="fill-rule:evenodd;"/><path d="M794.2872,402.9647l-.2016-2.5296,3.0672,.4704-.2904,2.4408-2.5753-.3816" vector-effect="non-scaling-stroke" style="fill-rule:evenodd;"/><path d="M813.888,388.7423l2.7552,.336-.6288,4.8384-1.7016,.2232,.6048-3.3384-1.344-.156,.3144-1.9032" vector-effect="non-scaling-stroke" style="fill-rule:evenodd;"/><path d="M817.1136,391.1831l10.8624,1.9488-.6936,4.5696-10.8648-1.9704,.696-4.548" vector-effect="non-scaling-stroke" style="fill-rule:evenodd;"/><path d="M829.2984,402.5615l.6936-9.072,1.6368,.0456-.8976,9.4536-1.4328-.4272" vector-effect="non-scaling-stroke" style="fill-rule:evenodd;"/><path d="M851.004,394.2071l.5376-5.5104,.9864,.0888-.18,4.8624-1.344,.5592" vector-effect="non-scaling-stroke" style="fill-rule:evenodd;"/><path d="M855.6864,362.4311l7.5024,1.032,1.884-2.8008-8.9832-1.2984,.336-1.2096,10.4616,1.2984-.4704,4.9296-.4944,3.7632-3.6288-.5616-1.68-.2448-5.1528-1.032,.0912-1.9032,.1344-1.9728" vector-effect="non-scaling-stroke" style="fill-rule:evenodd;"/><path d="M865.8792,356.3399l1.7904-5.0184,4.2576,.9624-3.1152,4.1664-2.9328-.1104" vector-effect="non-scaling-stroke" style="fill-rule:evenodd;"/></g><g id="d" transform="matrix(1,0,0,1,0,0)"><path d="M540.2568,129.7771l.7632-.9677,1.1832-.7798,1.6296-.1882,1.332-.3763,1.9872-.5376,1.3968-.2688,2.0304-1.6397,1.3752-.3495,.2112-2.0162v-3.2258l1.0368-2.957,1.692-2.3386,1.9464-.1882,2.1984,.215,2.6232,.215,.4656,2.285,3.5112,.4838,3.7632,1.0214-.084,2.6614,1.4592,3.0912,2.3064,.4841,1.0992-3.6559,4.188-.9142,3.216,.8066,4.9896,.9139,1.8624-2.4194,.168-3.9785,3.6816-1.9894,7.3608,.7529,2.0712,4.7849,4.7808,4.9462,4.272,3.2258,3.3,5.8601-5.34,3.629-.4224,4.6234,1.776,6.2364-1.2696,6.4512-.3384,1.7203-10.236-1.559-14.976-5.9673-43.0104-18.0907" vector-effect="non-scaling-stroke" style="fill-rule:evenodd;"/><path d="M635.3832,147.0614l2.2848-1.8278,2.9184-1.6666,1.86-.4838,3.2592,2.688,3.0024,1.7741-.3816,2.7418-.4632,2.4192-2.4552,2.2042-3.7632,2.6342-3.3432,.6451-4.7376-2.903-1.1832-3.2794,3.0024-4.9459" vector-effect="non-scaling-stroke" style="fill-rule:evenodd;"/><path d="M648.0408,164.0494l7.4256,2.0429-.2976,.215-.084,.672-.9504-.1075-.108,.5645,.8688,.3763-.1488,8.171-1.0992-.0806-1.7568-.8599-1.7976-.2688-.7392-2.3117,.4224-1.6934,.36-2.3383-2.0304-1.129-.7608-1.5859,.696-1.6666" vector-effect="non-scaling-stroke" style="fill-rule:evenodd;"/><path d="M865.5144,385.2336l-.264-.3456,.3264-4.3104-.3264-.9552,.1824-2.5824,.5088-4.4928,.5688-3.2112,.3264-.468,1.6248,.0624,.2856-3.924,.06-1.2816,.0816-1.5432-.3648-1.6272-.8736-1.8696-.4896-1.4232,1.992-3.132,3.5376-4.5936,1.7088-1.4232,1.5432-2.316,2.6832-2.0736,1.0584-2.3376,6.6671,.732-.1632,2.1144-.06,4.9992-.2448,3.8232-.2832,3.9432,.6096,4.1064,.2016,2.6016,3.0504,1.992,5.1624,.7728,.0048,.0552,.0047,.0552,.0024,.0552,.0024,.0552,.0024,.0552,.0024,.0552v.0552l-.0024,.0552v.0552l-.0024,.0552-.0024,.0552-.0048,.0552-.0023,.0552-.0072,.0552-.0048,.0552-.0072,.0552-.0072,.0528-.0072,.0552-.0096,.0552-.0096,.0528-.0096,.0528-.012,.0552-.012,.0528-.012,.0528-.012,.0528-.0144,.0528-.0144,.0528-.0144,.0504-.0168,.0528-.0168,.0504-.0168,.0504-.0192,.0504-.0192,.0504-.0192,.0504-.0192,.048-.0216,.048-.0216,.048-.0216,.048-.024,.048-.0216,.0456-.024,.0456-.0264,.0456-.024,.0456-.0264,.0456-.0264,.0432-.0264,.0432-.0288,.0432-.0288,.0408-.0288,.0432-.0288,.0408-.0288,.0408-.0312,.0384-.0312,.0384-.0312,.0384-.0336,.0384-.0312,.036-.0336,.036-.0336,.036-.0336,.0336-.036,.0336-.0336,.0336-.036,.0312-.036,.0312-.036,.0312-.036,.0312-.0384,.0288-.036,.0264-.0384,.0288-.0384,.0264-.0384,.0264-.0384,.024-.0408,.024-.0384,.024-.0408,.0216-.0408,.0216-.0408,.0192-.0408,.0192-.0408,.0192-.0408,.0168-.0408,.0192-.0432,.0144-.0408,.0144-.0432,.0144-.0408,.0144-.0432,.012-.0432,.0096-.0432,.012-.0408,.0096-.0432,.0072-.0432,.0072-.0432,.0072-.0432,.0048-.0456,.0048-.0432,.0048-.0432,.0024-.0432,.0024h-.0864l-.0432-.0024-.0456-.0024-.0432-.0024-.0432-.0024-.0432-.0072-.0432-.0048-.0432-.0072-.0432-.0072-.0432-.0096-.0432-.0096-.0408-.0096-.0432-.012-.0432-.012-.0432-.0144-.0408-.0144-.0432-.0144-.0408-.0168-5.1384,3.8928-5.1888,3.7896-.768,.4728-.7728,.4584-.78,.4392-.7872,.4224-.7896,.4056-.7968,.3888-.8016,.372-.8064,.3528-.8112,.3384-.816,.3192-.8208,.3-.8232,.2856-.9744,.5712-.9816,.552-.9912,.528-.996,.5088-1.0032,.4848-1.0104,.4656" vector-effect="non-scaling-stroke" style="fill-rule:evenodd;"/><path d="M834.1824,355.2024l7.6104-4.8456,5.6376-4.716,11.3568-9.2976,13.1712-10.4352,2.6832,3.5232,.4344,4.176-2.0328,.1344-.0552,.9768,.0288,3.5496-.1896,1.1928-.6504,1.1664-.9768,2.4648-.8664,1.464-.9504-.732-1.476-.5136-1.3896,2.0448-1.0896,1.3896-.2712,.7056-.5712,2.0856,.2448,1.4904-.1632,2.0616-9.6816-.78-.2184-.6096-.3792-.1224-4.6608-.4056-.948,1.7616,1.3272,.8928-.108,2.8464,.4872,2.0064-2.3568,.216-.8424,.0816-.324,1.8432-.5976,1.8696-1.7616,.408-2.9544-.2184-.96-1.6992,.96-7.9416-2.5056-.1488-.9624,7.344-4.8792-.84,.8808-4.3896" vector-effect="non-scaling-stroke" style="fill-rule:evenodd;"/><path d="M846.3384,343.452l-.42-.4344h-.5136l-.5712,.2976-.5808-.2424-.5712-.1632-.5952-.3936-.6504-.6624-.4871-.5016-.0288-.2712-.0528-1.1808-1.6128-.3648-5.8008-1.0296,.4608-1.9248,7.02,1.2864,.3264-.8736,.2832-.3528,2.508,.4608,.2304-1.2192,1.1928,.0408,3.6576,.2568,.1896,.9768-.2016,1.0152-.1104,1.1136-.0936,1.0008-3.5784,3.1656" vector-effect="non-scaling-stroke" style="fill-rule:evenodd;"/><path d="M867.1008,414.4704l-.3384-7.3992,.2568-2.0328,.312-1.6944h.9624l.1224-2.6136,4.8504,.4608,.1368,3.6048,.1488,.0744,.012,4.3152-.528,1.3416-1.5312,.5424-.0816,.7176-.2832,.1368-.312,.42-.0288,.84-.1608,1.152-3.5376,.1344" vector-effect="non-scaling-stroke" style="fill-rule:evenodd;"/><path d="M855.9744,412.3104l.2856-3.2928,.012-3.864,5.7192,.1488-.0936,3.7272-.1896,1.4496,.0792,1.2744,.1632,1.5312-.1896,.3528-.2304-.0408-5.556-1.2864" vector-effect="non-scaling-stroke" style="fill-rule:evenodd;"/><path d="M864.0096,414.708l-.2976,3.1704-1.0824-.0264-.0816,1.7496,.9624,.12,.0384,.8016-1.8553-.5016-.5688,.12-.0408,3.3888-4.8792-.4344-.0672-.3504-.1368-.0408,.0288-.1776-.2592-.108-.0528-.84-3.6456-.108-.1488-.8808-5.8416,.0816,.0816-1.0848-1.1928-.1224-.2856-.6912,.1896-1.056-.0528-.204-1.0176-.1344,.2856-3.972-.9768-.1488,.2856-4.8912,3.4968,1.4088,3.876,1.5168,3.0624,.8136,5.5008,1.2192,4.6752,1.3824" vector-effect="non-scaling-stroke" style="fill-rule:evenodd;"/><path d="M819.6289,609.1344l.6144-.6144-2.2416-2.0592-.5064-7.6608,4.1208-1.5192,2.8176-.288,2.748-1.1568,2.1672-2.2416,2.5296-2.1672,.5064-5.5656,.7224-3.468,6.432,1.5888,3.1824,1.2288,.36,5.928,2.892,.6504,2.3112-1.3752,3.4704-1.8072,1.0128,1.1568-.2184,2.604-1.4448,3.18-4.3368,6.432-1.5912-4.5528-1.6608-.9408-3.108-.5784-4.9152,1.4448-2.3136,2.892-2.7456,2.82-2.1696,2.6736-1.5168,2.892v2.3112l1.6632,1.0848,3.8304,.6504,3.6144-.072,1.8048,.5784-2.4576,.7224-4.7688,.5064-3.4704,1.0848-1.5168-.5064-5.8176-5.856" vector-effect="non-scaling-stroke" style="fill-rule:evenodd;"/><path d="M843.4608,611.9712l11.7456-14.6712,3.6864-4.2288,3.468-4.3728,1.5912-.9024,1.8432,1.2648,1.4808,.216,2.1336,1.3368,.36,1.6632,.8688,1.1568,3.252,1.5168-1.6992,1.8792-2.5296,3.8304-3.324,4.1208-2.748,3.6504-4.5528,3.9024-4.8432,2.5656-6.18,2.2776-2.3832-2.6016-2.1696-2.604" vector-effect="non-scaling-stroke" style="fill-rule:evenodd;"/><path d="M833.2776,401.8272l.2784-.492,1.26-.6168,2.4864-1.2072,1.9848-.9048,1.7976-.6696,5.4936-2.5776,.2496,3.936-5.5176,.108-.0288,.5544-.2856,.1512-.3216,5.6616-1.6992-1.4472-4.5072-1.8432-1.1904-.6528" vector-effect="non-scaling-stroke" style="fill-rule:evenodd;"/><path d="M848.6976,394.5816l3.1848-1.4304-.144,2.808-2.8968-.2136-.144-1.164" vector-effect="non-scaling-stroke" style="fill-rule:evenodd;"/><path d="M852.24,396.2448l4.632,.144,1.092,.6432,.4104,1.5216-.3744,.984-.948,.2136-1.0752,1.236-.1608,2.4312-3.9168-.1416,.3408-7.032" vector-effect="non-scaling-stroke" style="fill-rule:evenodd;"/><path d="M842.5441,374.1528l1.1976-9.2304,4.92,.8064-.4296,3.0936,1.2528,1.8264,1.0728,.84,4.008,.7512-.0552,1.932-3.1824,4.9368-.8592,2.6832-.3216,3.828-4.1856-.3936,.7512-4.2024,.66-.036,.3768-3.4704-.8952-.0912,.1248-2.5032-1.752-.18-.2856,2.4336-1.3056-.2856,.0168-2.3976-1.1088-.3408" vector-effect="non-scaling-stroke" style="fill-rule:evenodd;"/><path d="M854.7624,359.0568l8.8008,1.0728-1.3968,2.2896-7.7808-1.1616,.3768-2.2008" vector-effect="non-scaling-stroke" style="fill-rule:evenodd;"/><path d="M850.02,351.4368l4.08,.6792,.2856,5.8128-.7872,5.976-3.0408-.4128,.5544-5.1336-.7512-1.5552,.108-2.7192-1.164-.9672,.7152-1.68" vector-effect="non-scaling-stroke" style="fill-rule:evenodd;"/><path d="M869.2872,346.8744l3.4152,1.9488-1.3944,2.04-2.5128-2.0208-1.2072,.768-.7872-.4824,.9744-1.6536,.7608,.2232,.7512-.8232" vector-effect="non-scaling-stroke" style="fill-rule:evenodd;"/><path d="M861.3984,420.3504l3.4152,.5352,1.092,2.7912,1.5744,.7344,.3768-1.5216,.0336-2.0208,3.1848,.144-.072,1.788,1.9872,.1248,1.3056,.216,.072-5.0808,.1968-1.968,.7512-1.8792,.624,.252,.2328,5.472,.2688,2.3448,4.08,.2136,2.2896-.696,.0888-1.1112,3.4872,.4488,.108,4.7928-2.7192,.0552,.0888,1.3776-3.4344,.1248,.18,2.2704-1.4856,.0552,.1608,1.0536-1.0368,.0912,.1608,1.0008-2.4696-.7152-1.7352-.3408,.5376-1.0536-.1776-1.6104-1.5576-.3408-1.1256-3.864-1.3608-.0528-.4824,.912-.8952-.1608-.1608,1.1448-1.6104-.1248-1.5912-.3216,.0888-1.164-4.4904-.8592,.0192-3.0576" vector-effect="non-scaling-stroke" style="fill-rule:evenodd;"/><path d="M821.1217,406.7808l.0912-3.2544-7.62-1.0728-.8232,1.8408-1.6296-.4992,2.5944-8.8008,10.464,2.0376,2.004,.4296,.5544-3.0408,1.8792-.1248-.3768,5.3304-.4992,2.4336-.7344,3.9-3.8088,2.1624-.4848-1.1976-1.6104-.144" vector-effect="non-scaling-stroke" style="fill-rule:evenodd;"/><path d="M840.7896,397.56l-.5616,.1176-.288-4.2312,.8688-.1704,.0888-1.6368,3.0048,.564,.1272-2.2272,3.2448,.5184-.2232,3.8736-2.1816,1.3224-4.08,1.8696" vector-effect="non-scaling-stroke" style="fill-rule:evenodd;"/><path d="M834.2352,402.8112l4.548,1.7928,1.8816,1.4112-.3576,5.1744-6.4512-.3816,.3792-7.9968" vector-effect="non-scaling-stroke" style="fill-rule:evenodd;"/><path d="M820.572,410.2488l6.732-4.1568-.684,2.5872-.1008,2.3304-4.0104-.4032-.1008,.6936-1.6464-.0888-.2232-.2808,.0336-.6816" vector-effect="non-scaling-stroke" style="fill-rule:evenodd;"/><path d="M826.7208,412.0056l3.204,.2352,.2016,.2016,.1896,.6384-.336,1.1664h-1.2096l-2.2056-.2928,.156-1.9488" vector-effect="non-scaling-stroke" style="fill-rule:evenodd;"/><path d="M900.9096,393.1344l9.2976-.6048,1.0968,9.1848,.0671,2.1504h-9.8328l-.6288-10.7304" vector-effect="non-scaling-stroke" style="fill-rule:evenodd;"/><path d="M893.4289,352.7904l2.3976-.2688,.0671-4.6368v-4.7256l1.4329-.6504,1.6584-.6264,2.0592-1.1208,3.9888,7.1232,.6936,4.3248,.7847,5.5992,2.5296-.1344,.4488,.492,.6264,.9192,1.2096,2.1288,1.2096,3.0696-.1344,1.7232-2.4864,.4272-1.5888-5.8704-12.9936,7.08-.5136-1.4112-5.2872-.8064-2.868-1.7928-.156-1.7712,7.5936-.4032,.2232,.5376-.4704-4.9056-.4247-4.3008" vector-effect="non-scaling-stroke" style="fill-rule:evenodd;"/><path d="M869.9304,314.532l5.04-.8064,1.2768-.3144,.4704,1.524,.2688,2.3304-.828,1.2096-5.0184,4.1208-1.2096-8.064" vector-effect="non-scaling-stroke" style="fill-rule:evenodd;"/><path d="M854.1841,321.7896l.3792-5.6232h3.0024l.2688,5.5776-3.6504,.0456" vector-effect="non-scaling-stroke" style="fill-rule:evenodd;"/><path d="M795.3817,379.8072l1.9056-9.6096,3.2928,.8064-.3816,2.5536,6.6312,1.0968-.7392,2.508-2.508-.3792-.2016,1.3872-1.1208,.024,.1104-1.8816-2.5752-.6288-.6048,4.6152-3.8088-.492" vector-effect="non-scaling-stroke" style="fill-rule:evenodd;"/><path d="M786.1752,392.328l2.8896,.6504,.1344-.8064,.2016-.9408,4.2336,1.0968-.3576,2.7336-7.572-1.7712,.4704-.9624" vector-effect="non-scaling-stroke" style="fill-rule:evenodd;"/><path d="M793.0536,402.2952l-.2016-2.5296,3.0672,.4704-.2904,2.4408-2.5753-.3816" vector-effect="non-scaling-stroke" style="fill-rule:evenodd;"/><path d="M812.6544,388.0728l2.7552,.336-.6288,4.8384-1.7016,.2232,.6048-3.3384-1.344-.156,.3144-1.9032" vector-effect="non-scaling-stroke" style="fill-rule:evenodd;"/><path d="M815.88,390.5136l10.8624,1.9488-.6936,4.5696-10.8648-1.9704,.696-4.548" vector-effect="non-scaling-stroke" style="fill-rule:evenodd;"/><path d="M828.0648,401.892l.6936-9.072,1.6368,.0456-.8976,9.4536-1.4328-.4272" vector-effect="non-scaling-stroke" style="fill-rule:evenodd;"/><path d="M849.7704,393.5376l.5376-5.5104,.9864,.0888-.18,4.8624-1.344,.5592" vector-effect="non-scaling-stroke" style="fill-rule:evenodd;"/><path d="M854.4528,361.7616l7.5024,1.032,1.884-2.8008-8.9832-1.2984,.336-1.2096,10.4616,1.2984-.4704,4.9296-.4944,3.7632-3.6288-.5616-1.68-.2448-5.1528-1.032,.0912-1.9032,.1344-1.9728" vector-effect="non-scaling-stroke" style="fill-rule:evenodd;"/><path d="M864.6456,355.6704l1.7904-5.0184,4.2576,.9624-3.1152,4.1664-2.9328-.1104" vector-effect="non-scaling-stroke" style="fill-rule:evenodd;"/></g><g id="e"><text transform="translate(507.7978 179.671)" style="fill:#494949; font-family:HelveticaNeueLTW1G-Roman, Helvetica Neue LT W1G; font-size:16px;"><tspan x="0" y="0">Sofo</tspan></text><text transform="translate(779.1745 343.0966)" style="fill:#494949; font-family:HelveticaNeueLTW1G-Roman, Helvetica Neue LT W1G; font-size:16px;"><tspan x="0" y="0">Nea Zoi</tspan></text><text transform="translate(792.8523 580.4673)" style="fill:#494949; font-family:HelveticaNeueLTW1G-Roman, Helvetica Neue LT W1G; font-size:16px;"><tspan x="0" y="0">Neoktista</tspan></text></g></g></svg>